<svg id="facebook-logo" xmlns="http://www.w3.org/2000/svg" width="9.471" height="17.517" viewBox="0 0 9.471 17.517">
  <path id="Path_447" data-name="Path 447" d="M31.191,0,28.92,0a3.989,3.989,0,0,0-4.2,4.311V6.3H22.434a.357.357,0,0,0-.357.357v2.88a.357.357,0,0,0,.357.357h2.284V17.16a.357.357,0,0,0,.357.357h2.98a.357.357,0,0,0,.357-.357V9.893h2.671a.357.357,0,0,0,.357-.357V6.656a.357.357,0,0,0-.357-.357H28.413V4.614c0-.81.193-1.221,1.248-1.221h1.53a.357.357,0,0,0,.357-.357V.361A.357.357,0,0,0,31.191,0Z" transform="translate(-22.077)" fill="#277dd2"/>
</svg>
