<svg xmlns="http://www.w3.org/2000/svg" width="20.996" height="21" viewBox="0 0 20.996 21">
  <path id="invite" d="M13.737,6.974a.82.82,0,0,1-.82.82h-1.64v1.64a.82.82,0,0,1-1.64,0V7.794H8a.82.82,0,1,1,0-1.64h1.64V4.514a.82.82,0,1,1,1.64,0v1.64h1.64a.82.82,0,0,1,.82.82Zm5.618,6.643V8.969L12.23,13.4a3.261,3.261,0,0,1-3.465,0L1.639,8.969v8.75a1.642,1.642,0,0,0,1.64,1.64H17.715a1.642,1.642,0,0,0,1.64-1.64.82.82,0,0,1,1.64,0A3.284,3.284,0,0,1,17.715,21H3.28A3.284,3.284,0,0,1,0,17.718V7.9A3.267,3.267,0,0,1,1.512,5.137L8.756.5,8.765.5a3.26,3.26,0,0,1,3.465,0L12.239.5l7.245,4.639A3.267,3.267,0,0,1,21,7.905v5.712a.82.82,0,1,1-1.64,0Zm-.183-6.466a1.635,1.635,0,0,0-.572-.627l-7.24-4.636a1.629,1.629,0,0,0-1.724,0L2.4,6.519a1.638,1.638,0,0,0-.575.631l7.81,4.856a1.631,1.631,0,0,0,1.732,0Zm0,0" transform="translate(0.001 0.001)" fill="#fff"/>
</svg>
