<svg xmlns="http://www.w3.org/2000/svg" width="82" height="66" viewBox="0 0 82 66">
  <g id="Group_9157" data-name="Group 9157" transform="translate(-453 -217)">
    <text id="XMLID_155_" transform="translate(453 278)" fill="#fff" font-size="19.39" font-family="SegoeUI, Segoe UI"><tspan x="0" y="0">PingPonq</tspan></text>
    <g id="Group_9156" data-name="Group 9156" transform="translate(447.001 11)">
      <g id="XMLID_26_" transform="translate(21 206)">
        <path id="XMLID_186_" d="M458.408,275.47l-5.243,8.9a12.336,12.336,0,0,1-10.486,5.974h-6.462a4.092,4.092,0,0,0-3.536,1.951l-2.439,4.145a3.225,3.225,0,0,1-2.8,1.585H414.88a9.207,9.207,0,0,1-3.78-1.219c.488,4.877,6.34,5.365,6.34,5.365h10.973a4.954,4.954,0,0,0,4.267-2.439l2.195-3.78A4.092,4.092,0,0,1,438.412,294h5.243a14.482,14.482,0,0,0,12.315-6.95l4.511-7.559.366-.732c1.219-4.146-1.1-6.462-1.1-6.462A33.312,33.312,0,0,1,458.408,275.47Z" transform="translate(-406.93 -260.839)" fill="#fff"/>
        <path id="XMLID_185_" d="M452.574,262.9h-21.7a14.181,14.181,0,0,0-12.315,7.072l-10,16.826a6.13,6.13,0,0,0,5.243,9.266h12.437a3.283,3.283,0,0,0,2.926-1.707l2.439-4.146a4.659,4.659,0,0,1,3.9-2.195h6.584a11.769,11.769,0,0,0,10.12-5.731l5.731-9.754A6.312,6.312,0,0,0,452.574,262.9Z" transform="translate(-407.68 -262.9)" fill="#fff"/>
        <path id="XMLID_184_" d="M443,275.038l-13.656,4.877a.992.992,0,0,1-1.219-1.463l5.487-9.754a1.021,1.021,0,0,1,1.463-.366l8.169,4.877A1.015,1.015,0,0,1,443,275.038Z" transform="translate(-403.23 -261.748)" fill="#ed1d72"/>
      </g>
    </g>
  </g>
</svg>
