<svg xmlns="http://www.w3.org/2000/svg" xmlns:xlink="http://www.w3.org/1999/xlink" width="132.298" height="33.9" viewBox="0 0 132.298 33.9">
  <defs>
    <linearGradient id="linear-gradient" x1="1.11" y1="-0.337" x2="0.124" y2="1.153" gradientUnits="objectBoundingBox">
      <stop offset="0" stop-color="#ee1c25"/>
      <stop offset="1" stop-color="#ec1d77"/>
    </linearGradient>
    <linearGradient id="linear-gradient-2" x1="1" y1="-0.245" x2="0.035" y2="1.097" xlink:href="#linear-gradient"/>
  </defs>
  <g id="Group_9135" data-name="Group 9135" transform="translate(-140 -60)">
    <text id="XMLID_155_" transform="translate(190.298 84)" font-size="19.39" font-family="SegoeUI, Segoe UI"><tspan x="0" y="0">PingPonq</tspan></text>
    <g id="XMLID_26_" transform="translate(-267.68 -202.9)">
      <path id="XMLID_186_" d="M449.9,274.9l-4.3,7.3a10.117,10.117,0,0,1-8.6,4.9h-5.3a3.356,3.356,0,0,0-2.9,1.6l-2,3.4a2.645,2.645,0,0,1-2.3,1.3H414.2a7.551,7.551,0,0,1-3.1-1c.4,4,5.2,4.4,5.2,4.4h9a4.063,4.063,0,0,0,3.5-2l1.8-3.1a3.356,3.356,0,0,1,2.9-1.6h4.3a11.878,11.878,0,0,0,10.1-5.7l3.7-6.2.3-.6a5.4,5.4,0,0,0-.9-5.3A27.316,27.316,0,0,1,449.9,274.9Z" fill="url(#linear-gradient)"/>
      <path id="XMLID_185_" d="M444.5,262.9H426.7a11.631,11.631,0,0,0-10.1,5.8l-8.2,13.8a5.027,5.027,0,0,0,4.3,7.6h10.2a2.693,2.693,0,0,0,2.4-1.4l2-3.4a3.821,3.821,0,0,1,3.2-1.8h5.4a9.653,9.653,0,0,0,8.3-4.7l4.7-8A5.177,5.177,0,0,0,444.5,262.9Z" fill="url(#linear-gradient-2)"/>
      <path id="XMLID_184_" d="M440.3,273.8l-11.2,4a.814.814,0,0,1-1-1.2l4.5-8a.837.837,0,0,1,1.2-.3l6.7,4A.832.832,0,0,1,440.3,273.8Z" fill="#fff"/>
    </g>
  </g>
</svg>
