<svg id="networking" xmlns="http://www.w3.org/2000/svg" width="23.498" height="23.498" viewBox="0 0 23.498 23.498">
  <g id="Group_346" data-name="Group 346">
    <path id="Path_269" data-name="Path 269" d="M20.839,8.859a9.547,9.547,0,0,0-6.2-6.2,2.9,2.9,0,0,0-5.779,0,9.548,9.548,0,0,0-6.2,6.2,2.9,2.9,0,0,0,0,5.779,9.548,9.548,0,0,0,6.2,6.2,2.9,2.9,0,0,0,5.779,0,9.548,9.548,0,0,0,6.2-6.2,2.9,2.9,0,0,0,0-5.779ZM9.08,4.036a2.912,2.912,0,0,0,1.98,1.682V8.932a2.91,2.91,0,0,0-2.129,2.129H5.718A2.912,2.912,0,0,0,4.036,9.08,8.146,8.146,0,0,1,9.08,4.036Zm1.98,13.744a2.912,2.912,0,0,0-1.98,1.682,8.146,8.146,0,0,1-5.044-5.044,2.912,2.912,0,0,0,1.682-1.98H8.932a2.91,2.91,0,0,0,2.129,2.129ZM12.437,5.718a2.912,2.912,0,0,0,1.98-1.682A8.145,8.145,0,0,1,19.462,9.08a2.912,2.912,0,0,0-1.682,1.98H14.566a2.91,2.91,0,0,0-2.129-2.129V5.718Zm1.98,13.744a2.912,2.912,0,0,0-1.98-1.682V14.566a2.91,2.91,0,0,0,2.129-2.129H17.78a2.912,2.912,0,0,0,1.682,1.98A8.146,8.146,0,0,1,14.418,19.462Z" fill="#fff"/>
  </g>
</svg>
