<svg xmlns="http://www.w3.org/2000/svg" width="16.666" height="21.154" viewBox="0 0 16.666 21.154">
  <g id="text-file-outline-variant" transform="translate(-3.389)">
    <path id="Path_270" data-name="Path 270" d="M19.061,0H10.936a1,1,0,0,0-.672.261l-6.553,6A.994.994,0,0,0,3.389,7V20.161a1,1,0,0,0,.993.993H19.061a.994.994,0,0,0,.993-.993V.993A.994.994,0,0,0,19.061,0ZM10.184,3.03V6.72H6.154Zm7.884,16.138H5.376V8.707h5.8a.994.994,0,0,0,.993-.993V1.987h5.9V19.168ZM7.7,11.571h8.388v1.987H7.7Zm0,3.532h8.388V17.09H7.7Z" transform="translate(0)" fill="#fff"/>
  </g>
</svg>
