<svg xmlns="http://www.w3.org/2000/svg" width="23.438" height="19.098" viewBox="0 0 23.438 19.098">
  <path id="Path_441" data-name="Path 441" d="M36.421,19.167a8.817,8.817,0,0,1-2.514.7l-.01-.059a4.678,4.678,0,0,0,1.855-2.532,9.367,9.367,0,0,1-2.239.936,6.46,6.46,0,0,1-.789.162,4.874,4.874,0,0,0-8.363,3.4c0,.1,0,.193.009.289a4.7,4.7,0,0,0,.089.686,13.623,13.623,0,0,1-9.9-4.945,4.82,4.82,0,0,0,1.478,6.372,5.082,5.082,0,0,1-2.263-.6,4.875,4.875,0,0,0,3.971,4.8,4.612,4.612,0,0,1-2.217.046A4.7,4.7,0,0,0,19.959,31.8a9.711,9.711,0,0,1-6.976,2.076A13.773,13.773,0,0,0,34.109,22.23q0-.142,0-.285c0-.056,0-.112,0-.169,0-.04,0-.079,0-.119a8.617,8.617,0,0,0,2.313-2.49Zm0,0" transform="translate(-12.983 -16.902)" fill="#00bbf6"/>
</svg>
