<svg xmlns="http://www.w3.org/2000/svg" width="20.868" height="24.431" viewBox="0 0 20.868 24.431"><defs><style>.a{fill:#1d1d1d;}</style></defs><g transform="translate(-0.001 0)"><g transform="translate(0.001 0)"><path class="a" d="M27.742,9.161a8.093,8.093,0,0,1,3.563.823V1.018A1.018,1.018,0,0,0,30.287,0h-5.6V5.09a1.018,1.018,0,0,1-1.018,1.018H21.635A1.018,1.018,0,0,1,20.617,5.09V0h-5.6A1.018,1.018,0,0,0,14,1.018V15.269a1.018,1.018,0,0,0,1.018,1.018h4.647a8.154,8.154,0,0,1,8.078-7.126Z" transform="translate(-14)"/><path class="a" d="M47.126,40a7.126,7.126,0,1,0,7.126,7.126A7.126,7.126,0,0,0,47.126,40ZM51.2,47.126a2.038,2.038,0,0,1-2.036,2.036H46.108v1.527a.509.509,0,0,1-.916.305l-2.138-2.85,2.138-2.85a.509.509,0,0,1,.916.305v1.527h3.054V46.108H47.126V44.072h2.036A2.038,2.038,0,0,1,51.2,46.108Z" transform="translate(-33.383 -29.821)"/></g></g></svg>