<svg xmlns="http://www.w3.org/2000/svg" width="21" height="21.919" viewBox="0 0 21 21.919"><defs><style>.a{fill:#1d1d1d;}</style></defs><g transform="translate(0 0)"><path class="a" d="M15.667,10h.119q.307.006.608.039V2.586A2.589,2.589,0,0,0,13.808,0H2.587A2.589,2.589,0,0,0,0,2.586V17.462a2.589,2.589,0,0,0,2.586,2.586h7.492A6.58,6.58,0,0,1,15.667,10ZM9.275,4.223h3.832a.642.642,0,1,1,0,1.284H9.275a.642.642,0,0,1,0-1.284Zm0,2.569h3.832a.642.642,0,1,1,0,1.284H9.275a.642.642,0,0,1,0-1.284ZM7.119,15.825H3.286a.642.642,0,1,1,0-1.284H7.119a.642.642,0,1,1,0,1.284Zm0-2.612H3.286a.642.642,0,0,1,0-1.284H7.119a.642.642,0,0,1,0,1.284Zm0-2.569H3.286a.642.642,0,1,1,0-1.284H7.119a.642.642,0,1,1,0,1.284Zm0-2.569H3.286a.642.642,0,1,1,0-1.284H7.119a.642.642,0,0,1,0,1.284Zm0-2.569H3.286a.642.642,0,0,1,0-1.284H7.119a.642.642,0,0,1,0,1.284ZM8.633,10a.642.642,0,0,1,.642-.642h1.846a.642.642,0,0,1,0,1.284H9.275A.642.642,0,0,1,8.633,10Zm0,0"/><path class="a" d="M250.522,264.274a5.3,5.3,0,0,0-3.707-1.594h-.1a5.335,5.335,0,1,0,3.8,1.6ZM249,267.148l-2.037,2.539a.642.642,0,0,1-.878.118l-1.519-1.1a.642.642,0,0,1,.754-1.04l1.024.742L248,266.345a.642.642,0,1,1,1,.8Zm0,0" transform="translate(-231.053 -251.434)"/></g></svg>