<svg xmlns="http://www.w3.org/2000/svg" width="78.002" height="78.002" viewBox="0 0 78.002 78.002">
  <g id="check-mark_1_" data-name="check-mark (1)" transform="translate(0 0)">
    <path id="Path_424" data-name="Path 424" d="M84.955,47.477A37.478,37.478,0,1,1,47.477,10,37.478,37.478,0,0,1,84.955,47.477Zm0,0" transform="translate(-8.476 -8.477)" fill="#cbe558"/>
    <path id="Path_425" data-name="Path 425" d="M148.486,139.848,130.331,158l-7.947-7.947-8.618,8.618,7.947,7.947,8.618,8.618L157.1,148.466Zm0,0" transform="translate(-96.433 -118.543)" fill="#fff"/>
    <path id="Path_426" data-name="Path 426" d="M121.855,168.285a1.523,1.523,0,0,1-1.077-.446l-16.565-16.565a1.524,1.524,0,0,1,0-2.155l8.618-8.618a1.524,1.524,0,0,1,2.155,0l6.87,6.87,17.077-17.078a1.524,1.524,0,0,1,2.155,0l8.618,8.618a1.523,1.523,0,0,1,0,2.154L122.932,167.84a1.523,1.523,0,0,1-1.077.446ZM107.444,150.2l14.41,14.41,24.618-24.618-6.463-6.464L122.932,150.6a1.523,1.523,0,0,1-2.154,0l-6.87-6.87Zm0,0" transform="translate(-87.957 -110.066)"/>
    <path id="Path_427" data-name="Path 427" d="M38.992,78Q37.5,78,36,77.887A38.992,38.992,0,1,1,70.7,61.733a1.523,1.523,0,1,1-2.474-1.779,35.954,35.954,0,1,0-8.27,8.27A1.524,1.524,0,0,1,61.734,70.7,39,39,0,0,1,38.992,78Zm0,0"/>
    <path id="Path_428" data-name="Path 428" d="M421.477,423a1.524,1.524,0,1,1,1.077-.446A1.534,1.534,0,0,1,421.477,423Zm0,0" transform="translate(-355.974 -355.975)"/>
  </g>
</svg>
