<svg xmlns="http://www.w3.org/2000/svg" xmlns:xlink="http://www.w3.org/1999/xlink" width="1920" height="586" viewBox="0 0 1920 586">
  <defs>
    <clipPath id="clip-path">
      <rect id="Rectangle_903" data-name="Rectangle 903" width="1920" height="586" transform="translate(-18736 -4464)" fill="#fff1f2"/>
    </clipPath>
    <clipPath id="clip-path-2">
      <rect id="Rectangle_904" data-name="Rectangle 904" width="719" height="168" transform="translate(347 95)" fill="#fff" stroke="#707070" stroke-width="1"/>
    </clipPath>
    <clipPath id="clip-path-3">
      <rect id="Rectangle_905" data-name="Rectangle 905" width="132" height="141" transform="translate(-3 516)" fill="#fff" stroke="#707070" stroke-width="1"/>
    </clipPath>
  </defs>
  <g id="Mask_Group_8" data-name="Mask Group 8" transform="translate(18736 4464)" clip-path="url(#clip-path)">
    <g id="Group_10884" data-name="Group 10884" transform="translate(0 293)">
      <rect id="Rectangle_903-2" data-name="Rectangle 903" width="1920" height="586" transform="translate(-18738 -4757)" fill="#fff1f2"/>
      <g id="Mask_Group_6" data-name="Mask Group 6" transform="translate(-18612 -4850)" opacity="0.34" clip-path="url(#clip-path-2)">
        <path id="Path_1999" data-name="Path 1999" d="M784.065,5.159C822.6-15.732,872.272-4.59,906.162,32.55s50.6,98.885,41.782,152.273c-9.285,55.245-43.639,97.492-82.636,121.168s-83.565,32.033-127.2,39.925c-91.921,16.713-183.842,32.962-275.763,49.674-44.568,7.892-92.85,15.32-134.632-11.606-51.067-32.962-79.386-112.348-72.887-182.913C260.857,130.506,296.6,71.082,342.1,33.942S441.914-19.91,496.231-28.267C593.259-43.587,693.536-35.23,790.564-3.2Z" transform="translate(133.504 -177.527)" fill="#f9e2e6"/>
      </g>
      <path id="Path_2000" data-name="Path 2000" d="M561.667,47.8c5.267,8.026,13.544,14.3,22.573,18.309,39.628,17.557,75.243-1.5,115.373-3.762,12.29-.752,28.091,4.013,28.843,16.3,1.254,18.058-30.6,23.075-31.6,41.133-.5,9.029,8.026,16.553,17.055,18.058,8.778,1.5,17.807-1,26.586-3.762,14.8-4.515,29.846-9.28,44.644-13.795,1.756-.5,3.762-1,5.267-.251,1.756.752,2.759,3.01,3.511,5.016,2.257,6.27,4.515,12.541,6.521,18.811-14.3,3.261-28.091,9.029-42.387,12.541s-29.846,4.515-43.39-1.254-24.329-19.814-22.573-34.361c.753-7.023,4.515-14.3,2.508-21.068-2.257-8.277-12.039-12.541-20.817-12.039-8.528.5-16.553,4.515-24.579,7.524-27.338,10.283-59.191,8.778-84.774-5.518-15.55-8.528-30.6-24.078-39.126-41.635h36.368Z" transform="translate(-17993.162 -4803.8)" fill="#ff95a0"/>
      <path id="Path_2046" data-name="Path 2046" d="M711.067,142.353c20.065,9.782,52.168,14.3,73.487,5.016-1.254-11.286-2.007-22.824-2.257-34.11-15.049,7.023-32.355,8.277-49.159,6.521-16.554-1.756-32.856-6.27-49.159-9.531-19.061-4.013-58.94-3.261-57.185,26.084.752,13.042,14.547,22.322,16.3,35.114,1.5,10.032-5.016,20.065-13.293,25.834-8.528,5.769-18.811,8.026-28.592,10.283-1.254,4.264,3.261,8.778,7.775,9.28s8.778-1.5,13.042-3.511c10.283-5.016,21.57-11.287,25.833-22.071,6.521-15.55-3.762-32.355-8.026-48.407-1-4.013-1.756-8.277-.5-12.29,1.756-5.769,7.274-10.032,13.042-11.537,6.019-1.5,12.29-.5,18.058,1.5C684.732,125.3,697.022,135.581,711.067,142.353Z" transform="translate(-17570.242 -4768.991)" fill="#cbe3f3"/>
      <path id="Path_2001" data-name="Path 2001" d="M764.071,47.8C758.8,55.826,750.528,62.1,741.5,66.109c-39.628,17.557-75.243-1.5-115.373-3.762-12.29-.752-28.091,4.013-28.843,16.3-1.254,18.058,30.6,23.075,31.6,41.133.5,9.029-8.026,16.553-17.055,18.058-8.778,1.5-17.807-1-26.586-3.762-14.8-4.515-29.846-9.28-44.644-13.795-1.756-.5-3.762-1-5.267-.251-1.756.752-2.759,3.01-3.511,5.016-2.257,6.27-4.515,12.541-6.521,18.811,14.3,3.261,28.091,9.029,42.387,12.541s29.846,4.515,43.39-1.254,24.329-19.814,22.573-34.361c-.753-7.023-4.515-14.3-2.508-21.068,2.257-8.277,12.039-12.541,20.817-12.039,8.528.5,16.553,4.515,24.579,7.524,27.338,10.283,59.191,8.778,84.774-5.518,15.55-8.528,30.6-24.078,39.126-41.635H764.071Z" transform="translate(-18890.264 -4802.8)" fill="#d2cbf3"/>
      <path id="Path_2002" data-name="Path 2002" d="M674.487,142.353c-20.065,9.782-52.168,14.3-73.487,5.016,1.254-11.286,2.007-22.824,2.257-34.11,15.049,7.023,32.355,8.277,49.159,6.521,16.554-1.756,32.856-6.27,49.159-9.531,19.061-4.013,58.94-3.261,57.185,26.084-.752,13.042-14.547,22.322-16.3,35.114-1.5,10.032,5.016,20.065,13.293,25.834,8.528,5.769,18.811,8.026,28.592,10.283,1.254,4.264-3.261,8.778-7.775,9.28s-8.778-1.5-13.042-3.511c-10.283-5.016-21.57-11.287-25.833-22.071-6.521-15.55,3.762-32.355,8.026-48.407,1-4.013,1.756-8.277.5-12.29-1.756-5.769-7.274-10.032-13.042-11.537-6.019-1.5-12.29-.5-18.058,1.5C700.823,125.3,688.533,135.581,674.487,142.353Z" transform="translate(-19343 -4587.656)" fill="#e53892"/>
      <path id="Path_2047" data-name="Path 2047" d="M527.775,235.739s-11.537-3.01-19.814-12.039l-3.26,2.508s2.508,12.791,13.293,17.055Z" transform="translate(-18565.932 -4413.929)" fill="#fff7d4"/>
      <g id="Group_10875" data-name="Group 10875" transform="translate(-17393.789 -4200.797)">
        <path id="Path_799" data-name="Path 799" d="M543.732,235.563a1.781,1.781,0,1,1,0-3.563,1.781,1.781,0,0,1,0,3.563Z" transform="translate(-541.95 -232)" fill="#fff7d4"/>
      </g>
      <g id="Group_10877" data-name="Group 10877" transform="translate(-17096.992 -4203.41)">
        <path id="Path_800" data-name="Path 800" d="M668.325,233.988c-1.9,0-1.9-3.088,0-3.088,1.9.238,1.9,3.088,0,3.088Z" transform="translate(-666.9 -230.9)" fill="#fff7d4"/>
      </g>
      <g id="Group_10878" data-name="Group 10878" transform="translate(-16998.416 -4192.246)">
        <path id="Path_813" data-name="Path 813" d="M708.875,237.5a6.3,6.3,0,0,1,1.425-1.188c.237-.238.475-.475.712-.475.238-.238.475-.238.95-.238a1.428,1.428,0,0,1,.95.238c.238,0,.475.238.713.475,0,.238.237.238.237.475a1.78,1.78,0,0,1,.238,1.188v.713a1.234,1.234,0,0,1-.475.95,6.29,6.29,0,0,0-1.188,1.425c-.237.238-.475.475-.713.475-.237.238-.475.238-.95.238a1.429,1.429,0,0,1-.95-.238c-.237,0-.475-.238-.713-.475l-.475-.475a2.142,2.142,0,0,1-.237-1.188v-.713a1.817,1.817,0,0,1,.475-1.188Z" transform="translate(-708.4 -235.6)" fill="#fff7d4"/>
      </g>
      <g id="Group_10870" data-name="Group 10870" transform="translate(-17661.846 -4607.455)">
        <path id="Path_825" data-name="Path 825" d="M429.813,62.463c-.95,0-.95-1.663,0-1.663a.833.833,0,1,1,0,1.663Z" transform="translate(-429.1 -60.8)" fill="#fff7d4"/>
      </g>
      <g id="Group_10876" data-name="Group 10876" transform="translate(-17526.689 -4192.721)">
        <path id="Path_827" data-name="Path 827" d="M487.425,238.25a1.425,1.425,0,0,1,0-2.85,1.425,1.425,0,1,1,0,2.85Z" transform="translate(-486 -235.4)" fill="#fff7d4"/>
      </g>
      <g id="Group_10879" data-name="Group 10879" transform="translate(-17223.598 -4188.921)">
        <path id="Path_833" data-name="Path 833" d="M615.025,239.85a1.425,1.425,0,1,1,0-2.85c1.663.238,1.663,2.85,0,2.85Z" transform="translate(-613.6 -237)" fill="#fff7d4"/>
      </g>
      <g id="Group_10880" data-name="Group 10880" transform="translate(-17275.498 -4189.871)">
        <path id="Path_834" data-name="Path 834" d="M592.819,238.738a1.069,1.069,0,0,1,0-2.138c1.188.238,1.188,2.138,0,2.138Z" transform="translate(-591.75 -236.6)" fill="#fff7d4"/>
      </g>
      <g id="Group_10881" data-name="Group 10881" transform="translate(-17055 -4371.612)">
        <g id="Group_10822" data-name="Group 10822" transform="translate(79.945 79.063)">
          <path id="Path_1963" data-name="Path 1963" d="M591.746,707.8l46.414,83.865L571.1,730.527Z" transform="translate(-550.294 -707.8)" fill="#e45040"/>
          <path id="Path_1964" data-name="Path 1964" d="M558.1,744.727,578.906,722l67.06,61.138.16.32Z" transform="translate(-558.1 -699.273)" fill="#ab1100"/>
        </g>
        <path id="Path_1965" data-name="Path 1965" d="M583.427,734.1,558.46,667.2a2.379,2.379,0,1,1,4.481-1.6v.16Z" transform="translate(-478.034 -655.037)" fill="#9fb603"/>
        <path id="Path_1966" data-name="Path 1966" d="M579.92,732.081l-35.05-34.25a2.377,2.377,0,0,1,3.361-3.361l.16.16Z" transform="translate(-486.531 -637.173)" fill="#fda014"/>
        <path id="Path_1967" data-name="Path 1967" d="M591.615,733.419l-81.784-24.007a2.36,2.36,0,0,1-1.6-2.881,2.29,2.29,0,0,1,2.881-1.6h.16Z" transform="translate(-508.149 -630.509)" fill="#d12407"/>
        <path id="Path_1968" data-name="Path 1968" d="M565.154,730.421l-22.887,2.721a2.245,2.245,0,0,1-2.561-2.081,2.331,2.331,0,0,1,2.081-2.561h.48Z" transform="translate(-489.21 -616.307)" fill="#16c1d1"/>
        <path id="Path_1969" data-name="Path 1969" d="M581.1,715.537l6.882-32.65a2.387,2.387,0,1,1,4.641,1.12c0,.16,0,.16-.16.32Z" transform="translate(-464.344 -644.796)" fill="#fdc63a"/>
        <path id="Path_1970" data-name="Path 1970" d="M543.6,677.882l4.8,2.721.48,5.6,4.161-3.681,5.442,1.28-2.241-5.121,2.881-4.8-5.6.64-3.681-4.321-1.12,5.442Z" transform="translate(-486.862 -651.314)" fill="#fdc63a"/>
        <path id="Path_1971" data-name="Path 1971" d="M517.46,728.243l3.2-1.6,3.041,1.76-.64-3.521,2.561-2.4-3.361-.48-1.6-3.2-1.6,3.041-3.361.48,2.4,2.561Z" transform="translate(-503.615 -622.131)" fill="#9fb603"/>
        <path id="Path_1972" data-name="Path 1972" d="M571.3,666.722l4.321.16,2.241,3.521,1.6-4,4.161-1.12-3.521-2.561.32-4.321-3.521,2.4-4-1.6,1.12,4.161Z" transform="translate(-470.229 -658.4)" fill="#16c1d1"/>
        <path id="Path_1973" data-name="Path 1973" d="M548.421,717.143l3.041-1.6,3.041,1.6-.48-3.361,2.561-2.4-3.521-.64-1.6-3.041-1.44,3.041-3.521.48,2.4,2.561Z" transform="translate(-485.12 -628.797)" fill="#9fb603"/>
        <circle id="Ellipse_2031" data-name="Ellipse 2031" cx="5.282" cy="5.282" r="5.282" transform="matrix(0.674, -0.739, 0.739, 0.674, 32.806, 74.767)" fill="#9fb603"/>
        <circle id="Ellipse_2032" data-name="Ellipse 2032" cx="3.681" cy="3.681" r="3.681" transform="translate(101.924 24.918) rotate(-47.614)" fill="#d12407"/>
        <ellipse id="Ellipse_2033" data-name="Ellipse 2033" cx="3.681" cy="3.841" rx="3.681" ry="3.841" transform="translate(95.791 86.619) rotate(-47.586)" fill="#d12407"/>
        <path id="Path_1974" data-name="Path 1974" d="M530.967,731.012a3.767,3.767,0,0,0,5.281-.16,3.741,3.741,0,0,0-5.6-4.961A3.6,3.6,0,0,0,530.967,731.012Z" transform="translate(-495.195 -618.659)" fill="#fda014"/>
        <path id="Path_1975" data-name="Path 1975" d="M589.382,704.978a3.636,3.636,0,0,0,5.281-.32,3.736,3.736,0,0,0-5.442-5.122A3.671,3.671,0,0,0,589.382,704.978Z" transform="translate(-460.142 -634.397)" fill="#9fb603"/>
        <ellipse id="Ellipse_2034" data-name="Ellipse 2034" cx="3.841" cy="3.681" rx="3.841" ry="3.681" transform="matrix(0.674, -0.739, 0.739, 0.674, 36.212, 42.776)" fill="#16c1d1"/>
        <g id="Group_10823" data-name="Group 10823" transform="translate(79.945 91.387)">
          <path id="Path_1976" data-name="Path 1976" d="M597.267,715.5l3.2,5.6-27.368,1.28,5.442-6.082Z" transform="translate(-549.093 -715.5)" fill="#d9d9d9"/>
          <path id="Path_1977" data-name="Path 1977" d="M559.38,739.843l-1.28-.64,4.961-5.442L620.2,731.2l3.2,5.6Z" transform="translate(-558.1 -706.073)" fill="#d9d9d9"/>
          <path id="Path_1978" data-name="Path 1978" d="M565.4,731.142l5.6-6.082,37.931-1.761,3.2,5.762Z" transform="translate(-553.716 -710.816)" fill="#d9d9d9"/>
          <path id="Path_1979" data-name="Path 1979" d="M596.6,753.782l-12-5.281,33.61-1.6,3.2,5.762Z" transform="translate(-542.188 -696.645)" fill="#d9d9d9"/>
          <path id="Path_1980" data-name="Path 1980" d="M580,746.782,568,741.5l53.3-2.4,3.2,5.6Z" transform="translate(-552.155 -701.329)" fill="#d9d9d9"/>
          <path id="Path_1981" data-name="Path 1981" d="M613.2,760.722l-12-5.281,14.084-.64,3.2,5.6Z" transform="translate(-532.22 -691.901)" fill="#d9d9d9"/>
        </g>
      </g>
      <g id="Group_10869" data-name="Group 10869" transform="translate(-18555.879 -4638.094)">
        <g id="Group_10817" data-name="Group 10817" transform="translate(4.263 6.261)">
          <path id="Path_1948" data-name="Path 1948" d="M703.1,817.722l27.248,9.827L752.325,766.8Z" transform="translate(-703.1 -766.8)" fill="#16c1d1"/>
          <path id="Path_1949" data-name="Path 1949" d="M755.577,766.8,733.6,827.549l27.248,9.827Z" transform="translate(-706.352 -766.8)" fill="#14b0bf"/>
        </g>
        <circle id="Ellipse_2026" data-name="Ellipse 2026" cx="4.824" cy="4.824" r="4.824" transform="translate(47.282 9.074) rotate(-70.141)" fill="#fd8114"/>
        <path id="Path_1950" data-name="Path 1950" d="M759.277,761.668a4.742,4.742,0,0,0-5.9,2.5,4.825,4.825,0,0,0,2.948,5.718,4.378,4.378,0,1,0,2.948-8.219Z" transform="translate(-704.181 -759.963)" fill="#fda014"/>
        <g id="Group_10818" data-name="Group 10818" transform="translate(7.569 15.374)">
          <circle id="Ellipse_2027" data-name="Ellipse 2027" cx="3.037" cy="3.037" r="3.037" transform="translate(34.934 48.563) rotate(-70.141)" fill="#fdc63a"/>
          <circle id="Ellipse_2028" data-name="Ellipse 2028" cx="4.646" cy="4.646" r="4.646" transform="translate(34.94 31.922) rotate(-70.141)" fill="#fdc63a"/>
          <path id="Path_1951" data-name="Path 1951" d="M758.711,786.18a3.08,3.08,0,0,0-2.055,5.807,2.982,2.982,0,0,0,2.859-.447l-.357-5.182A.683.683,0,0,1,758.711,786.18Z" transform="translate(-711.898 -777.961)" fill="#fdc63a"/>
          <path id="Path_1952" data-name="Path 1952" d="M760.195,820.751l-3.216-.715,1.429,3.037-1.608,2.859,3.305-.536,2.055,2.323-.625-8.219Z" transform="translate(-712.131 -781.532)" fill="#fdc63a"/>
          <path id="Path_1953" data-name="Path 1953" d="M762.633,840.81a1.262,1.262,0,0,0,.8.089l-.268-4.2a2.176,2.176,0,0,0-1.787,1.34A2.115,2.115,0,0,0,762.633,840.81Z" transform="translate(-712.604 -783.366)" fill="#fdc63a"/>
          <path id="Path_1954" data-name="Path 1954" d="M737.1,832.916l-.357-3.216-2.323,2.233-3.216-.625,1.251,2.591.893.357,4.02,1.429,2.68-1.251Z" transform="translate(-709.402 -782.619)" fill="#fdc63a"/>
          <path id="Path_1955" data-name="Path 1955" d="M739.864,809.716l-.357-3.216-2.412,2.233-3.216-.625,1.519,2.948-1.7,2.859,3.305-.447,2.234,2.412.536-3.216,3.037-1.34Z" transform="translate(-709.668 -780.146)" fill="#fdc63a"/>
          <path id="Path_1956" data-name="Path 1956" d="M737,791.939l.625-3.216,2.948-1.34-1.787-.983-3.484,3.663Z" transform="translate(-709.839 -778.002)" fill="#fdc63a"/>
          <path id="Path_1957" data-name="Path 1957" d="M727.354,803.486a3.08,3.08,0,0,0,2.055-5.807,3.474,3.474,0,0,0-1.34-.179l-2.769,2.859A3.016,3.016,0,0,0,727.354,803.486Z" transform="translate(-708.772 -779.186)" fill="#fdc63a"/>
          <path id="Path_1958" data-name="Path 1958" d="M709.569,821.744a4.706,4.706,0,0,0,3.216-8.844l-5.986,6.164A4.808,4.808,0,0,0,709.569,821.744Z" transform="translate(-706.8 -780.828)" fill="#fdc63a"/>
          <circle id="Ellipse_2029" data-name="Ellipse 2029" cx="2.144" cy="2.144" r="2.144" transform="translate(19.026 41.798) rotate(-70.135)" fill="#fdc63a"/>
          <path id="Path_1959" data-name="Path 1959" d="M746.661,780.931a2.091,2.091,0,0,0,1.43-3.931h0l-2.591,2.769A1.853,1.853,0,0,0,746.661,780.931Z" transform="translate(-710.927 -777)" fill="#fdc63a"/>
          <circle id="Ellipse_2030" data-name="Ellipse 2030" cx="2.144" cy="2.144" r="2.144" transform="translate(30.987 16.748) rotate(-70.141)" fill="#fdc63a"/>
        </g>
        <g id="Group_10819" data-name="Group 10819" transform="translate(0 57.327)">
          <path id="Path_1960" data-name="Path 1960" d="M758.613,847.938c.715-1.876-.179-3.931-3.395-5.092l-50.833-18.4c-3.216-1.161-5.182-.089-5.9,1.787,0,.089,0,.089-.089.179l60.035,21.709C758.524,848.028,758.613,848.028,758.613,847.938Z" transform="translate(-698.336 -823.961)" fill="#fdc63a"/>
          <path id="Path_1961" data-name="Path 1961" d="M698.482,826.7c-.536,1.876.268,3.841,3.395,4.914l50.833,18.4c3.127,1.161,5,.179,5.807-1.608Z" transform="translate(-698.328 -824.253)" fill="#a81d05"/>
        </g>
        <g id="Group_10820" data-name="Group 10820" transform="translate(4.263 55.397)">
          <path id="Path_1962" data-name="Path 1962" d="M704.8,821.8l-1.7,1.787,27.248,9.827,27.248,9.827-.268-2.5Z" transform="translate(-703.1 -821.8)" fill="#d1d1d1"/>
        </g>
      </g>
      <g id="Group_10882" data-name="Group 10882" transform="translate(-17186.66 -4186.07)">
        <path id="Path_835" data-name="Path 835" d="M630.219,240.575a1.194,1.194,0,0,1,0-2.375c1.425.238,1.425,2.375,0,2.375Z" transform="translate(-629.15 -238.2)" fill="#fff7d4"/>
      </g>
      <g id="Mask_Group_7" data-name="Mask Group 7" transform="translate(-18738 -4828)" clip-path="url(#clip-path-3)">
        <g id="Group_10874" data-name="Group 10874" transform="translate(-124.838 536)">
          <g id="Group_10872" data-name="Group 10872">
            <path id="Path_2003" data-name="Path 2003" d="M515.683,755.749c5.908-.923,10.709,4.246,10.893,11.078.739,23.818,1.662,47.451,2.954,70.53-6.462-22.341-13.294-44.866-20.679-67.945C507,762.765,509.959,756.488,515.683,755.749Z" transform="translate(-397.64 -740.922)" fill="#c12106"/>
            <path id="Path_2004" data-name="Path 2004" d="M481.229,784.073c2.954-2.585,8.309-1.662,11.817,2.031,12.37,13.109,24.187,26.587,35.265,40.066A535.173,535.173,0,0,0,484,793.858C479.568,791.089,478.275,786.658,481.229,784.073Z" transform="translate(-421.9 -718.102)" fill="#fda014"/>
            <path id="Path_2005" data-name="Path 2005" d="M448.429,812.2c.739-4.246,7.939-7.2,15.694-5.724a392.456,392.456,0,0,1,76.623,21.6,469.513,469.513,0,0,0-79.208-8.124C453.6,819.77,447.69,816.447,448.429,812.2Z" transform="translate(-448.366 -698.225)" fill="#9fb603"/>
            <path id="Path_2006" data-name="Path 2006" d="M608.891,791.605c1.662,2.769-1.662,6.831-7.385,8.862A434.526,434.526,0,0,0,546.3,826.5a351.369,351.369,0,0,1,49.851-34.711C601.321,788.651,607.229,788.651,608.891,791.605Z" transform="translate(-365.481 -712.341)" fill="#fdc63a"/>
            <path id="Path_2007" data-name="Path 2007" d="M589.482,755.142c6.462,3.139,6.647,9.97.739,16.063A408.735,408.735,0,0,0,535.2,841a603.117,603.117,0,0,1,35.634-78.469C574.527,755.327,583.02,752,589.482,755.142Z" transform="translate(-374.876 -742.346)" fill="#16c1d1"/>
            <path id="Path_2008" data-name="Path 2008" d="M494.958,757.2c.554,2.585-1.477,5.354-4.8,6.277-3.139.739-6.278-.554-7.016-3.139-.554-2.585,1.477-5.354,4.8-6.278C491.265,752.952,494.4,754.614,494.958,757.2Z" transform="translate(-419.011 -742.556)" fill="#16c1d1"/>
            <path id="Path_2009" data-name="Path 2009" d="M536.727,789.522c.369,2.585-1.846,4.985-4.8,5.354s-5.539-1.292-5.908-3.877,1.846-4.985,4.8-5.354A4.87,4.87,0,0,1,536.727,789.522Z" transform="translate(-382.68 -715.612)" fill="#fda014"/>
            <path id="Path_2010" data-name="Path 2010" d="M536.527,818.422c.369,2.585-1.846,4.985-4.8,5.354s-5.539-1.292-5.908-3.877,1.846-4.985,4.8-5.354A4.87,4.87,0,0,1,536.527,818.422Z" transform="translate(-382.85 -691.153)" fill="#fda014"/>
            <path id="Path_2011" data-name="Path 2011" d="M492.894,825.6a3.729,3.729,0,0,1-2.769,5.17,5.821,5.821,0,0,1-6.278-3.139,3.683,3.683,0,0,1,2.77-5.17A5.591,5.591,0,0,1,492.894,825.6Z" transform="translate(-418.609 -684.48)" fill="#fdc63a"/>
            <path id="Path_2012" data-name="Path 2012" d="M576.007,808.7c-.369,2.4-2.77,4.431-5.354,4.8-2.585.185-4.431-1.477-4.247-3.877s2.585-4.616,5.354-4.8C574.53,804.452,576.376,806.3,576.007,808.7Z" transform="translate(-348.476 -699.339)" fill="#9fb603"/>
            <path id="Path_2013" data-name="Path 2013" d="M501.119,770.717c.369,1.846-1.108,3.877-3.508,4.431-2.216.554-4.616-.554-4.985-2.585-.369-1.846,1.108-3.877,3.323-4.431C498.35,767.763,500.565,768.871,501.119,770.717Z" transform="translate(-410.956 -730.41)" fill="#fda014"/>
            <path id="Path_2014" data-name="Path 2014" d="M533.569,750.865c.185,2.031-1.477,3.693-4.062,3.877-2.4.185-4.616-1.292-4.985-3.139-.369-2.031,1.477-3.693,4.062-3.877C531.168,747.357,533.384,748.834,533.569,750.865Z" transform="translate(-383.953 -747.669)" fill="#9fb603"/>
            <path id="Path_2015" data-name="Path 2015" d="M500.35,807.117a3.269,3.269,0,0,1-2.77,4.062,3.9,3.9,0,0,1-4.616-2.4c-.554-1.846.554-3.693,2.769-4.246A4.009,4.009,0,0,1,500.35,807.117Z" transform="translate(-410.74 -699.604)" fill="#a81d05"/>
            <path id="Path_2016" data-name="Path 2016" d="M470.529,828.43a2.362,2.362,0,0,1-1.662,3.693,4.649,4.649,0,0,1-4.985-1.846,2.392,2.392,0,0,1,1.662-3.693A4.473,4.473,0,0,1,470.529,828.43Z" transform="translate(-435.571 -681.035)" fill="#16c1d1"/>
            <path id="Path_2017" data-name="Path 2017" d="M475.25,798.364c.739,1.846-.554,3.693-2.585,4.431a4.143,4.143,0,0,1-5.17-1.846c-.739-1.662.554-3.693,2.769-4.431A3.988,3.988,0,0,1,475.25,798.364Z" transform="translate(-432.353 -706.545)" fill="#9fb603"/>
            <path id="Path_2018" data-name="Path 2018" d="M546.254,818.8a3.952,3.952,0,0,1-3.139,3.877,3.03,3.03,0,0,1-3.508-2.77,3.777,3.777,0,0,1,3.139-3.877A2.85,2.85,0,0,1,546.254,818.8Z" transform="translate(-371.159 -689.867)" fill="#9fb603"/>
            <path id="Path_2019" data-name="Path 2019" d="M542.012,764.8c.185,2.4-2.031,4.616-4.985,4.8s-5.724-1.477-5.908-3.877c-.369-2.4,1.846-4.616,4.985-4.8C539.058,760.552,541.643,762.4,542.012,764.8Z" transform="translate(-378.364 -736.493)" fill="#a81d05"/>
            <path id="Path_2020" data-name="Path 2020" d="M562.9,780.509c2.769-3.693,5.539-7.2,8.308-10.709,2.77,3.693,5.354,7.2,7.939,10.893A159.02,159.02,0,0,0,562.9,780.509Z" transform="translate(-351.432 -728.939)" fill="#fda014"/>
            <path id="Path_2021" data-name="Path 2021" d="M514.8,804c4.8.739,9.416,1.477,14.032,2.216-3.139,3.323-6.278,6.831-9.232,10.155C518.123,812.309,516.462,808.062,514.8,804Z" transform="translate(-392.141 -699.995)" fill="#fda014"/>
            <path id="Path_2022" data-name="Path 2022" d="M468.793,790.178c-3.508-2.954-7.2-5.724-10.893-8.493l16.063-4.985C472.3,781.316,470.455,785.747,468.793,790.178Z" transform="translate(-440.297 -723.1)" fill="#16c1d1"/>
            <path id="Path_2023" data-name="Path 2023" d="M470.362,756.6c1.477,1.292,3.139,2.585,4.616,4.062,2.585-.554,4.985-1.108,7.57-1.662-1.477,1.846-2.769,3.877-4.247,5.724.923,1.846,1.846,3.508,2.77,5.354l-7.2-.554c-1.846,1.662-3.877,3.323-5.724,4.985-.185-2.031-.185-4.062-.369-6.093-2.031-.739-4.247-1.292-6.278-2.031,2.4-1.108,4.616-2.4,7.016-3.508C469.07,760.847,469.624,758.816,470.362,756.6Z" transform="translate(-437.251 -740.111)" fill="#9fb603"/>
            <path id="Path_2024" data-name="Path 2024" d="M516.562,815.1c1.477,1.292,3.139,2.585,4.616,4.062,2.585-.554,4.985-1.108,7.57-1.662-1.477,1.846-2.769,3.877-4.247,5.724.923,1.846,1.846,3.508,2.77,5.354l-7.2-.554c-1.846,1.662-3.877,3.323-5.724,4.985-.185-2.031-.185-4.062-.369-6.093-2.031-.738-4.246-1.292-6.277-2.031,2.4-1.108,4.616-2.4,7.016-3.508A62.166,62.166,0,0,0,516.562,815.1Z" transform="translate(-398.15 -690.6)" fill="#a81d05"/>
          </g>
          <g id="Group_10873" data-name="Group 10873" transform="translate(49.882 125.376)">
            <path id="Path_2025" data-name="Path 2025" d="M538.04,915.561c-2.216.369-4.985-4.062-6.093-10.155-3.693-21.048-6.647-42.65-9.047-64.806,6.278,21.417,12,42.466,16.8,63.329C540.994,910.022,540.256,915.192,538.04,915.561Z" transform="translate(-435.168 -794.394)" fill="#c12106"/>
            <path id="Path_2026" data-name="Path 2026" d="M557.633,879.581c-2.031,2.031-4.431.554-5.724-3.323A257.088,257.088,0,0,0,534,834.9c9.786,11.817,18.094,23.448,24.372,34.9C560.033,873.119,559.664,877.366,557.633,879.581Z" transform="translate(-425.774 -799.219)" fill="#fda014"/>
            <path id="Path_2027" data-name="Path 2027" d="M598.883,852.418c-3.139,4.246-7.755,5.354-11.078,2.585-11.632-9.786-27.141-20.494-45.6-31.2,20.679,6.277,39.142,12.74,54.467,18.279C601.283,843.74,602.021,848.172,598.883,852.418Z" transform="translate(-418.834 -808.613)" fill="#9fb603"/>
            <path id="Path_2028" data-name="Path 2028" d="M481.057,869.3c-3.323-2.216-3.693-6.093-.739-8.678,10.34-8.862,21.971-18.648,35.08-28.618a308.331,308.331,0,0,0-25.11,36C488.442,871.142,484.38,871.512,481.057,869.3Z" transform="translate(-472.902 -801.673)" fill="#fdc63a"/>
            <path id="Path_2029" data-name="Path 2029" d="M515.141,918.792c-3.877-2.216-8.493-8.308-9.232-13.847-2.216-19.387,1.108-41.727,8.862-65.545-2.769,25.664-1.846,50.035,3.877,72.007C520.31,917.869,519.2,921.008,515.141,918.792Z" transform="translate(-450.118 -795.41)" fill="#9fb603"/>
            <path id="Path_2030" data-name="Path 2030" d="M539.6,885.609c0-2.4.739-4.616,2.031-4.985,1.108-.369,2.031,1.292,2.031,3.693s-.923,4.616-2.031,4.985C540.708,889.67,539.785,888.009,539.6,885.609Z" transform="translate(-421.034 -760.564)" fill="#16c1d1"/>
            <path id="Path_2031" data-name="Path 2031" d="M515.905,854.209c-.739-2.4.369-4.616,2.4-4.985s4.062,1.292,4.8,3.693c.554,2.4-.369,4.616-2.4,4.985S516.644,856.609,515.905,854.209Z" transform="translate(-441.282 -787.139)" fill="#fda014"/>
            <path id="Path_2032" data-name="Path 2032" d="M552.906,820.607a5.322,5.322,0,0,1,4.616-4.985,3.55,3.55,0,0,1,4.246,3.877,5.682,5.682,0,0,1-4.616,4.985A3.481,3.481,0,0,1,552.906,820.607Z" transform="translate(-409.784 -815.574)" fill="#fdc63a"/>
            <path id="Path_2033" data-name="Path 2033" d="M475.968,839.144c-1.292-2.216-.369-4.247,2.031-4.985a6.079,6.079,0,0,1,6.462,2.954c1.108,2.216.185,4.431-2.031,4.8A5.818,5.818,0,0,1,475.968,839.144Z" transform="translate(-475.383 -799.954)" fill="#9fb603"/>
            <path id="Path_2034" data-name="Path 2034" d="M537.211,871.7c-.185-1.846.739-3.508,1.846-3.693s2.031.923,2.216,2.77c0,1.846-.739,3.508-1.846,3.693S537.211,873.548,537.211,871.7Z" transform="translate(-423.076 -771.214)" fill="#fda014"/>
            <path id="Path_2035" data-name="Path 2035" d="M525.843,887.531c-.554-1.662-.369-3.139.554-3.323s2.031,1.108,2.585,2.77.369,3.139-.554,3.323C527.689,890.485,526.4,889.378,525.843,887.531Z" transform="translate(-432.941 -757.502)" fill="#9fb603"/>
            <path id="Path_2036" data-name="Path 2036" d="M541,837.606a3.834,3.834,0,0,1,2.77-3.877c1.662-.369,2.954.923,2.954,2.77a4.051,4.051,0,0,1-2.769,3.877C542.292,840.745,541,839.453,541,837.606Z" transform="translate(-419.849 -800.263)" fill="#a81d05"/>
            <path id="Path_2037" data-name="Path 2037" d="M572.632,819.216a4.516,4.516,0,0,1,3.877-3.508,2.2,2.2,0,0,1,2.585,2.77,5.012,5.012,0,0,1-3.877,3.508A2.2,2.2,0,0,1,572.632,819.216Z" transform="translate(-393.137 -815.476)" fill="#16c1d1"/>
            <path id="Path_2038" data-name="Path 2038" d="M555.311,848.706a4.768,4.768,0,0,1,2.954-3.877c1.477-.369,2.4.923,2.031,2.769s-1.662,3.508-2.954,3.877C556.049,851.66,555.126,850.368,555.311,848.706Z" transform="translate(-407.757 -790.869)" fill="#9fb603"/>
            <path id="Path_2039" data-name="Path 2039" d="M499.073,825.91a2.887,2.887,0,0,1,2.4-3.877,3.9,3.9,0,0,1,4.431,2.585,2.988,2.988,0,0,1-2.4,3.877A4.478,4.478,0,0,1,499.073,825.91Z" transform="translate(-455.468 -810.169)" fill="#9fb603"/>
            <path id="Path_2040" data-name="Path 2040" d="M519.007,876.154c-.923-2.215-.369-4.062,1.108-4.246s3.139,1.292,3.877,3.508.185,4.062-1.108,4.246S519.745,878.185,519.007,876.154Z" transform="translate(-438.845 -767.911)" fill="#a81d05"/>
            <path id="Path_2041" data-name="Path 2041" d="M504.247,864a86.378,86.378,0,0,0,1.477,9.97c-3.508-2.954-7.016-6.093-10.524-9.047C498.154,864.739,501.293,864.369,504.247,864Z" transform="translate(-458.611 -774.59)" fill="#fda014"/>
            <path id="Path_2042" data-name="Path 2042" d="M532.132,842.286c-3.877-.738-7.755-1.662-11.632-2.4,2.4-3.323,4.985-6.462,7.57-9.785C529.547,834.162,530.84,838.224,532.132,842.286Z" transform="translate(-437.199 -803.281)" fill="#fda014"/>
            <path id="Path_2043" data-name="Path 2043" d="M557.293,861.1a94.821,94.821,0,0,1,1.108,10.155c-2.4.554-4.8,1.108-7.2,1.477Q553.97,866.916,557.293,861.1Z" transform="translate(-411.217 -777.045)" fill="#16c1d1"/>
            <path id="Path_2044" data-name="Path 2044" d="M547.77,893.448a42.189,42.189,0,0,0-.369-4.616H545l2.216-4.431c0-1.846.185-3.508.185-5.354a19.6,19.6,0,0,1,2.031,1.662c.923-1.108,1.846-2.216,2.77-3.508-.369,1.846-.923,3.693-1.292,5.539.369,1.108.739,2.031,1.108,3.139a22.38,22.38,0,0,0-2.585,1.846C548.877,889.94,548.323,891.6,547.77,893.448Z" transform="translate(-416.464 -763.419)" fill="#9fb603"/>
          </g>
        </g>
      </g>
      <path id="Subtraction_9" data-name="Subtraction 9" d="M21449.572,4939.472h-320.455a124.1,124.1,0,0,1,2.168-25.67,119.134,119.134,0,0,1,7.453-24.492,108.683,108.683,0,0,1,12.609-22.051,98.859,98.859,0,0,1,17.648-18.347,93.7,93.7,0,0,1,29.211-15.671,105.2,105.2,0,0,1,52.5-3.379,97.409,97.409,0,0,1,18.781,5.6,88.6,88.6,0,0,1,17.088,9.347,81.487,81.487,0,0,1,14.582,13.115c4.023,4.584,7.633,9.637,11.125,14.524l.023.035,0,0c6.336,8.869,12.889,18.041,21.953,24.369,14.072,9.57,31.709,10.789,48.764,11.967,7.561.522,15.375,1.063,22.83,2.315a88.715,88.715,0,0,1,10.967,2.51,62.246,62.246,0,0,1,10.4,4.13,51.173,51.173,0,0,1,12.773,9.212,56.993,56.993,0,0,1,9.572,12.484Z" transform="translate(-39290 -9111)" fill="#d2cbf3" opacity="0.24"/>
      <ellipse id="Ellipse_2038" data-name="Ellipse 2038" cx="51.565" cy="51.564" rx="51.565" ry="51.564" transform="translate(-18789.35 -4667.431)" fill="#d2cbf3" opacity="0.37"/>
      <g id="Group_10883" data-name="Group 10883" transform="translate(-521 -1068)">
        <path id="Path_649" data-name="Path 649" d="M448.031,227.235c19.392-5.63,32.529-26.482,31.278-46.708-1.043-20.226-15.013-38.576-33.154-47.334s-40.036-8.549-59.011-1.668c-13.345,4.8-25.648,12.72-39.2,16.89-20.226,6.047-41.7,3.336-62.556,1.043s-42.746-3.753-62.139,4.17-35.448,28.567-31.069,49c4.587,21.477,27.733,33.363,49,39.41,67.769,19.6,142.627,12.72,205.808-18.767Z" transform="translate(-16486.709 -3019.226) rotate(-90)" fill="#d2cbf3" opacity="0.26"/>
        <ellipse id="Ellipse_1967" data-name="Ellipse 1967" cx="62.673" cy="62.673" rx="62.673" ry="62.673" transform="translate(-16360.156 -3240.998)" fill="#ec1d6f" opacity="0.16"/>
      </g>
    </g>
  </g>
</svg>
