<svg xmlns="http://www.w3.org/2000/svg" width="16.17" height="14.449" viewBox="0 0 16.17 14.449">
  <path id="Brands" d="M8.215,14.1l-.1-.1,6.566-6.566a1.029,1.029,0,0,0,.3-.729V1.186A1.187,1.187,0,0,1,16.17,2.372V7.335a1.183,1.183,0,0,1-.349.838L9.892,14.1a1.185,1.185,0,0,1-1.677,0Zm-2.9-.651L.347,8.486a1.187,1.187,0,0,1,0-1.678L6.81.348A1.182,1.182,0,0,1,7.647,0h4.965A1.185,1.185,0,0,1,13.8,1.186V6.15a1.186,1.186,0,0,1-.348.839L6.988,13.45a1.185,1.185,0,0,1-1.677,0ZM9.647,3.261a.89.89,0,1,0,.89-.889A.89.89,0,0,0,9.647,3.261Z" transform="translate(0)" fill="#1D1D1D"/>
</svg>
