<svg xmlns="http://www.w3.org/2000/svg" width="21" height="22.909" viewBox="0 0 21 22.909"><defs><style>.a{fill:#1d1d1d;}</style></defs><path class="a" d="M16.511,15H6.489A5.5,5.5,0,0,0,1,20.489v2.386a.716.716,0,0,0,.716.716H21.284A.716.716,0,0,0,22,22.875V20.489A5.5,5.5,0,0,0,16.511,15Z" transform="translate(-1 -0.682)"/><path class="a" d="M11.682,0a6.682,6.682,0,1,0,6.682,6.682A6.69,6.69,0,0,0,11.682,0ZM12.4,9.534v.727a.716.716,0,0,1-1.432,0V9.545h-.477a.716.716,0,1,1,0-1.432h1.795a.358.358,0,0,0,0-.716h-1.2a1.786,1.786,0,0,1-.115-3.568V3.1a.716.716,0,0,1,1.432,0v.716h.477a.716.716,0,1,1,0,1.432H11.08a.358.358,0,0,0,0,.716h1.2A1.786,1.786,0,0,1,12.4,9.534Z" transform="translate(-1.182 0)"/></svg>