<svg xmlns="http://www.w3.org/2000/svg" width="104" height="104" viewBox="0 0 104 104">
  <g id="card_icon" transform="translate(-1452 -337)">
    <circle id="Ellipse_1951" data-name="Ellipse 1951" cx="52" cy="52" r="52" transform="translate(1452 337)" fill="#dcfaf8"/>
    <path id="Union_19" data-name="Union 19" d="M4.3,31.924A4.416,4.416,0,0,1,0,27.406V4.518A4.416,4.416,0,0,1,4.3,0H38.67a4.416,4.416,0,0,1,4.3,4.518V27.406a4.416,4.416,0,0,1-4.3,4.518ZM2.865,27.407A1.472,1.472,0,0,0,4.3,28.913H38.67A1.472,1.472,0,0,0,40.1,27.407V15.059H2.865Zm0-15.36H40.1V9.035H2.865Zm0-7.529V6.023H40.1V4.518A1.472,1.472,0,0,0,38.67,3.012H4.3A1.472,1.472,0,0,0,2.865,4.518ZM30.077,25.9a1.508,1.508,0,0,1,0-3.012h5.729a1.508,1.508,0,0,1,0,3.012ZM22.916,24.4A1.434,1.434,0,1,1,24.348,25.9,1.471,1.471,0,0,1,22.916,24.4Z" transform="translate(1483.629 372.657)" fill="#16dbcc"/>
  </g>
</svg>
