<svg xmlns="http://www.w3.org/2000/svg" width="104" height="104" viewBox="0 0 104 104">
  <g id="cart_icon" transform="translate(-1021 -337)">
    <circle id="Ellipse_1950" data-name="Ellipse 1950" cx="52" cy="52" r="52" transform="translate(1021 337)" fill="#e7edff"/>
    <path id="order_1_" data-name="order (1)" d="M25.067,6.515,17.833,5.459,19.21,10.21l7,.195L25.9,8.591a9.745,9.745,0,0,1-.831-2.076ZM33.4,28.2a3.534,3.534,0,1,1-3.534,3.534A3.535,3.535,0,0,1,33.4,28.2Zm.53,3.005a.749.749,0,1,0,0,1.059A.75.75,0,0,0,33.929,31.2ZM16.906,28.2a3.534,3.534,0,1,1-3.534,3.534A3.535,3.535,0,0,1,16.906,28.2Zm.529,3.005a.749.749,0,1,0,0,1.059A.749.749,0,0,0,17.436,31.2ZM29.361,12.266l.9,5.2a9.2,9.2,0,0,0,5.278-3.774,9.792,9.792,0,0,1-6.181-1.421Zm9.823.3a11.964,11.964,0,0,1-9.775,7.887L14.621,22.39a1.149,1.149,0,0,0-.7,1.732,1.162,1.162,0,0,0,1.036.563H36.777a1.393,1.393,0,0,1,0,2.786H14.953a3.96,3.96,0,0,1-3.613-5.638,4.057,4.057,0,0,1,.608-.935L4.761,3.2,3.018,1.943A3.421,3.421,0,0,1-1.44.829,3.426,3.426,0,0,1-.5-3.925a3.426,3.426,0,0,1,4.753.937A3.445,3.445,0,0,1,4.732-.25L6.439.987,24.726,3.655A9.811,9.811,0,0,1,41.473-3.007l1.66-1.661a1.393,1.393,0,0,1,1.97,0,1.393,1.393,0,0,1,0,1.969L43.157-.753a9.82,9.82,0,0,1-3.972,13.321Zm-8.748-8.14a1.393,1.393,0,0,1,1.969-1.97l1.8,1.8,5.3-5.3a7.021,7.021,0,1,0,1.562,2.376L35.192,7.213a1.392,1.392,0,0,1-1.969,0ZM1.943-1.443A.649.649,0,0,0,.77-1.207a.649.649,0,0,0,1,.666.659.659,0,0,0,.175-.9ZM14.428,19.611c1.469-.151,2.979-.385,4.448-.578l-1.768-6.1-5.456-.152Zm5.593-6.6,1.64,5.66,5.858-.767L26.7,13.195Zm-9.51-3.041,5.786.161-1.481-5.11L8.1,4.039Zm0,0" transform="translate(1050.513 374.083)" fill="#396aff" fill-rule="evenodd"/>
  </g>
</svg>
