<svg xmlns="http://www.w3.org/2000/svg" width="90.703" height="77.202" viewBox="0 0 90.703 77.202">
  <path id="chat_boxicon" d="M45.392,77.2A14.964,14.964,0,0,1,33.453,71.33a14.481,14.481,0,0,1-2.144-3.953,3.643,3.643,0,0,0-3.433-2.456h-11.1A16.844,16.844,0,0,1,4.905,60.07,16.565,16.565,0,0,1,1.319,54.8,16.32,16.32,0,0,1,0,48.342V16.577a16.316,16.316,0,0,1,1.319-6.458A16.653,16.653,0,0,1,10.242,1.3,16.83,16.83,0,0,1,16.772,0H73.927A16.818,16.818,0,0,1,85.794,4.85,16.45,16.45,0,0,1,90.7,16.577V48.342A16.451,16.451,0,0,1,85.794,60.07a16.813,16.813,0,0,1-11.867,4.851H62.912a3.654,3.654,0,0,0-3.44,2.456,14.842,14.842,0,0,1-5.379,7.062A14.922,14.922,0,0,1,45.392,77.2ZM17.516,33.975a4.83,4.83,0,1,0,0,9.659H73.225a4.922,4.922,0,0,0,4.886-4.83,4.862,4.862,0,0,0-4.886-4.83ZM29.282,16.782a4.831,4.831,0,1,0,0,9.661H61.424a4.831,4.831,0,1,0,0-9.661Z" fill="#d6d6d6"/>
</svg>
