<svg xmlns="http://www.w3.org/2000/svg" width="108.48" height="109.313" viewBox="0 0 108.48 109.313"><defs><style>.a{fill:#d6d6d6;}</style></defs><g transform="translate(-1.63 0.008)"><g transform="translate(1.63 -0.008)"><path class="a" d="M94.579,16.249A54.234,54.234,0,0,0,1.655,55.872,51.685,51.685,0,0,0,5.362,74.023a53.724,53.724,0,0,0,7.671,13.421L8.559,98.053a8.039,8.039,0,0,0,8.82,11.12l20.707-3.579A54.3,54.3,0,0,0,94.579,16.249ZM51.887,75.94H37.7a4.09,4.09,0,0,1,0-8.181H51.887a4.119,4.119,0,0,1,4.09,4.09,4.038,4.038,0,0,1-4.09,4.091ZM74,59.323H37.7a4.119,4.119,0,0,1-4.09-4.09,4.038,4.038,0,0,1,4.09-4.09H74a4.09,4.09,0,1,1,0,8.181Zm0-16.744H37.7a4.09,4.09,0,0,1,0-8.181H74a4.119,4.119,0,0,1,4.09,4.09A4.206,4.206,0,0,1,74,42.579Z" transform="translate(-1.63 0.008)"/></g></g></svg>