<svg xmlns="http://www.w3.org/2000/svg" width="54.498" height="58.373" viewBox="0 0 54.498 58.373">
  <g id="commission" transform="translate(-4 -4)">
    <path id="Path_593" data-name="Path 593" d="M57.28,41.4a3.429,3.429,0,0,0-2.792-.754L33.7,44.259l-5.9-5.9a1.044,1.044,0,0,0-.741-.307H16.577A1.048,1.048,0,0,0,15.529,37H4v2.1h6.288V53.769H4v2.1H15.529a1.048,1.048,0,0,0,1.048-1.048h2.9l11.2,5.6a3.42,3.42,0,0,0,3.258-.1L56.8,46.978a3.426,3.426,0,0,0,.478-5.58ZM14.48,53.771h-2.1V39.1h2.1Zm41.264-8.6L32.881,58.5a1.326,1.326,0,0,1-1.264.041L20.191,52.832a1.045,1.045,0,0,0-.47-.111H16.577V40.144H26.624L34.882,48.4a1.916,1.916,0,1,1-2.71,2.71l-5.421-5.42-1.482,1.482,5.421,5.42a4.012,4.012,0,0,0,5.674-5.674l-.848-.848,19.331-3.362a1.33,1.33,0,0,1,.9,2.459Z" transform="translate(0 1.587)"/>
    <rect id="Rectangle_760" data-name="Rectangle 760" width="15.581" height="2.097" transform="translate(29.426 26.354) rotate(-47.715)"/>
    <path id="Path_594" data-name="Path 594" d="M30.144,20.788A3.144,3.144,0,1,0,27,17.644,3.144,3.144,0,0,0,30.144,20.788Zm0-4.192A1.048,1.048,0,1,1,29.1,17.644,1.048,1.048,0,0,1,30.144,16.6Z" transform="translate(1.106 0.505)"/>
    <path id="Path_595" data-name="Path 595" d="M35,23.644A3.144,3.144,0,1,0,38.144,20.5,3.144,3.144,0,0,0,35,23.644Zm4.192,0A1.048,1.048,0,1,1,38.144,22.6a1.048,1.048,0,0,1,1.048,1.044Z" transform="translate(1.49 0.793)"/>
    <path id="Path_596" data-name="Path 596" d="M34.2,43.5a1.049,1.049,0,0,0,1.522,0l16.62-17.511a13.373,13.373,0,0,0,0-18.193,11.889,11.889,0,0,0-17.381-.04A11.889,11.889,0,0,0,17.58,7.8a13.373,13.373,0,0,0,0,18.193ZM19.1,9.239a9.792,9.792,0,0,1,14.378,0L34.2,10a1.082,1.082,0,0,0,1.521,0l.722-.762a9.792,9.792,0,0,1,14.378,0,11.25,11.25,0,0,1,0,15.306L34.961,41.256,19.1,24.545a11.25,11.25,0,0,1,0-15.306Z" transform="translate(0.481)"/>
    <rect id="Rectangle_761" data-name="Rectangle 761" width="3" height="2" transform="translate(30 28.678)"/>
    <rect id="Rectangle_762" data-name="Rectangle 762" width="3" height="2" transform="translate(34 28.678)"/>
    <rect id="Rectangle_763" data-name="Rectangle 763" width="2" height="2" transform="translate(39 28.678)"/>
  </g>
</svg>
