<svg xmlns="http://www.w3.org/2000/svg" width="16.5" height="18" viewBox="0 0 16.5 18"><path d="M11.437,120.918H2.063A2.064,2.064,0,0,1,0,118.855V108.73a2.064,2.064,0,0,1,2.063-2.062h.375a.563.563,0,0,1,0,1.125H2.063a.939.939,0,0,0-.938.937v10.125a.939.939,0,0,0,.938.938h9.375a.939.939,0,0,0,.938-.938v-.375a.562.562,0,1,1,1.125,0v.375A2.064,2.064,0,0,1,11.437,120.918Zm0,0" transform="translate(0 -102.918)"/><path d="M137.938,13.5h-7.875A2.064,2.064,0,0,1,128,11.437V2.063A2.064,2.064,0,0,1,130.063,0h7.875A2.064,2.064,0,0,1,140,2.063v9.375A2.064,2.064,0,0,1,137.938,13.5ZM130.063,1.125a.939.939,0,0,0-.938.938v9.375a.939.939,0,0,0,.938.938h7.875a.939.939,0,0,0,.937-.938V2.063a.939.939,0,0,0-.937-.938Zm0,0" transform="translate(-123.5 0)"/></svg>