<svg xmlns="http://www.w3.org/2000/svg" width="17.987" height="21.56" viewBox="0 0 17.987 21.56"><defs><style>.a{fill:#1d1d1d;}</style></defs><g transform="translate(0 -0.001)"><path class="a" d="M107.912,222.991a1.051,1.051,0,1,0,.779,1.015A.933.933,0,0,0,107.912,222.991Z" transform="translate(-102.301 -213.699)"/><path class="a" d="M259.276,341.981a1.051,1.051,0,1,0,.779,1.015A.934.934,0,0,0,259.276,341.981Z" transform="translate(-246.837 -327.322)"/><path class="a" d="M16.863,23.446c-6.86-6.312-6.509-6.071-7.055-6.283a2.251,2.251,0,0,0-2.334.439L1.124,23.446A3.492,3.492,0,0,0,0,26.01V36.358A2.208,2.208,0,0,0,2.2,38.57H15.787a2.208,2.208,0,0,0,2.2-2.212V26.01a3.493,3.493,0,0,0-1.123-2.565ZM8.339,21.227a.676.676,0,1,1,.541.73A.676.676,0,0,1,8.339,21.227Zm-4.86,6.089a2.262,2.262,0,0,1,2.132-2.368,2.381,2.381,0,0,1,0,4.737,2.262,2.262,0,0,1-2.132-2.369Zm3.879,7.2a.677.677,0,0,1-.623-.939l3.294-7.85a.677.677,0,0,1,1.248.524L7.982,34.1a.677.677,0,0,1-.624.415Zm5.081.534a2.381,2.381,0,0,1,0-4.737,2.381,2.381,0,0,1,0,4.737Z" transform="translate(0 -17.009)"/></g></svg>