<svg xmlns="http://www.w3.org/2000/svg" width="62" height="58.694" viewBox="0 0 62 58.694">
  <g id="deal-events" transform="translate(0 -12.683)">
    <g id="Group_10221" data-name="Group 10221" transform="translate(53.22 35.647)">
      <g id="Group_10220" data-name="Group 10220">
        <rect id="Rectangle_764" data-name="Rectangle 764" width="10.33" height="2.087" transform="translate(0 7.304) rotate(-45)"/>
      </g>
    </g>
    <g id="Group_10223" data-name="Group 10223" transform="translate(0 12.684)">
      <g id="Group_10222" data-name="Group 10222">
        <path id="Path_597" data-name="Path 597" d="M55.218,47.643l-10.4-10.406a13.653,13.653,0,0,0,2.057-1.685L50.522,31.9l-1.476-1.476-3.652,3.652a11.514,11.514,0,0,1-16.265,0l-1.565-1.565a1.044,1.044,0,0,0-1.431-.042l-2.775,2.465a8.357,8.357,0,0,1-10.635.379L26.777,22.138a5.2,5.2,0,0,1,3.569-1.412H42.66a3.108,3.108,0,0,0,2.214-.917l5.65-5.65-1.478-1.476-5.65,5.65a1.044,1.044,0,0,1-.739.306H30.344a7.279,7.279,0,0,0-5,1.976L10.459,34.575a1.043,1.043,0,0,0-.047,1.475l.023.023a10.443,10.443,0,0,0,14.31.417l2.038-1.811.87.869a13.558,13.558,0,0,0,15.256,2.733L53.742,49.118A2.646,2.646,0,1,1,50,52.86l-2.609-2.609-1.476,1.476,2.609,2.609a2.648,2.648,0,0,1,0,3.742,2.713,2.713,0,0,1-3.742,0l-2.609-2.609L40.7,56.945l2.609,2.609a2.648,2.648,0,0,1,0,3.742,2.713,2.713,0,0,1-3.742,0l-2.609-2.609L35.48,62.162l2.609,2.609a2.648,2.648,0,0,1,0,3.742,2.713,2.713,0,0,1-3.742,0L32.454,66.62a4.7,4.7,0,0,0-4.079-7.789,4.675,4.675,0,0,0-5.218-5.218A4.675,4.675,0,0,0,17.94,48.4a4.7,4.7,0,0,0-7.788-4.078l-8.676-8.68L0,37.117l8.654,8.654L6.783,47.643A4.73,4.73,0,0,0,10.13,55.72a4.935,4.935,0,0,0,.538-.051,4.7,4.7,0,0,0,4.679,5.269,4.935,4.935,0,0,0,.538-.051,4.7,4.7,0,0,0,4.679,5.269A4.932,4.932,0,0,0,21.1,66.1a4.719,4.719,0,0,0,8.026,3.885L31,68.118l1.871,1.871a4.731,4.731,0,0,0,8.05-3.861,4.728,4.728,0,0,0,5.218-5.218,4.728,4.728,0,0,0,5.218-5.218,4.731,4.731,0,0,0,3.861-8.05ZM12,52.86a2.646,2.646,0,1,1-3.742-3.742l3.131-3.131a2.646,2.646,0,1,1,3.742,3.742Zm5.218,5.218a2.646,2.646,0,1,1-3.742-3.742L16.607,51.2a2.646,2.646,0,1,1,3.742,3.742ZM18.694,63.3a2.648,2.648,0,0,1,0-3.742l3.131-3.131a2.646,2.646,0,1,1,3.742,3.742L22.436,63.3a2.651,2.651,0,0,1-3.742,0Zm12.09,2.087-3.131,3.131a2.646,2.646,0,1,1-3.742-3.742l3.131-3.131a2.646,2.646,0,1,1,3.742,3.742Z" transform="translate(0 -12.684)"/>
      </g>
    </g>
    <g id="Group_10225" data-name="Group 10225" transform="translate(11.479 12.684)">
      <g id="Group_10224" data-name="Group 10224">
        <path id="Path_598" data-name="Path 598" d="M95.864,18.639a1.044,1.044,0,0,1-.739-.306l-5.65-5.65L88,14.16l5.65,5.65a3.108,3.108,0,0,0,2.214.917h3.309V18.639Z" transform="translate(-88 -12.684)"/>
      </g>
    </g>
  </g>
</svg>
