<svg xmlns="http://www.w3.org/2000/svg" width="104" height="104" viewBox="0 0 104 104">
  <g id="dollar_icon" transform="translate(-589 -337)">
    <circle id="Ellipse_1949" data-name="Ellipse 1949" cx="52" cy="52" r="52" transform="translate(589 337)" fill="#fff5d9"/>
    <path id="Union_18" data-name="Union 18" d="M0,22.5A22.5,22.5,0,1,1,22.5,45,22.5,22.5,0,0,1,0,22.5ZM24,38.925v3a19.546,19.546,0,0,0,6.915-1.86L29.4,37.471A16.656,16.656,0,0,1,24,38.925Zm-9.916,1.141A19.546,19.546,0,0,0,21,41.926v-3a16.646,16.646,0,0,1-5.4-1.454Zm17.925-4.1,1.5,2.611a19.9,19.9,0,0,0,5.071-5.071l-2.611-1.5A17.117,17.117,0,0,1,32.01,35.97ZM6.421,33.51a19.868,19.868,0,0,0,5.069,5.071l1.5-2.611a17.117,17.117,0,0,1-3.96-3.96ZM9,22.5A13.5,13.5,0,1,0,22.5,9,13.521,13.521,0,0,0,9,22.5Zm28.47,6.9,2.595,1.515A19.546,19.546,0,0,0,41.926,24h-3A16.656,16.656,0,0,1,37.471,29.4ZM4.936,30.915,7.53,29.4A16.624,16.624,0,0,1,6.075,24h-3A19.518,19.518,0,0,0,4.936,30.915ZM37.471,15.6A16.646,16.646,0,0,1,38.925,21h3a19.546,19.546,0,0,0-1.86-6.916ZM3.075,21h3A16.614,16.614,0,0,1,7.53,15.6L4.936,14.085A19.517,19.517,0,0,0,3.075,21ZM32.01,9.03a17.117,17.117,0,0,1,3.96,3.96l2.611-1.5A19.868,19.868,0,0,0,33.51,6.421ZM6.421,11.49l2.61,1.5a17.117,17.117,0,0,1,3.96-3.96l-1.5-2.61A19.841,19.841,0,0,0,6.421,11.49ZM24,6.075A16.624,16.624,0,0,1,29.4,7.53l1.515-2.595A19.518,19.518,0,0,0,24,3.075ZM14.085,4.936,15.6,7.53A16.614,16.614,0,0,1,21,6.075v-3A19.517,19.517,0,0,0,14.085,4.936ZM21,33V30H18V27h6V24H21a3,3,0,0,1-3-3V18a3,3,0,0,1,3-3V12h3v3h3v3H21v3h3a3,3,0,0,1,3,3v3a3,3,0,0,1-3,3v3Z" transform="translate(620 367)" fill="#ffbb38"/>
  </g>
</svg>
