<svg id="download-white" xmlns="http://www.w3.org/2000/svg" width="15.5" height="15.503" viewBox="0 0 15.5 15.503">
  <g id="Group_3" data-name="Group 3" transform="translate(5.167)">
    <path id="Path_7" data-name="Path 7" d="M175.772,7.461a.647.647,0,0,0-.578-.357H173.9V.646a.646.646,0,0,0-1.292,0V7.1h-1.292a.646.646,0,0,0-.517,1.033l1.938,2.583c.008.011.021.015.03.025a.63.63,0,0,0,.149.125.663.663,0,0,0,.067.045.606.606,0,0,0,.542,0,.654.654,0,0,0,.066-.045.631.631,0,0,0,.149-.125c.008-.01.022-.014.03-.025l1.938-2.583a.645.645,0,0,0,.064-.672Z" transform="translate(-170.674)" fill="#fff"/>
  </g>
  <g id="Group_4" data-name="Group 4" transform="translate(0 9.688)">
    <path id="Path_8" data-name="Path 8" d="M14.854,320a.646.646,0,0,0-.646.646v1.938a1.94,1.94,0,0,1-1.937,1.938H3.229a1.94,1.94,0,0,1-1.937-1.937v-1.937a.646.646,0,0,0-1.292,0v1.938a3.233,3.233,0,0,0,3.229,3.229h9.042a3.233,3.233,0,0,0,3.229-3.229v-1.937a.646.646,0,0,0-.646-.649Z" transform="translate(0 -320)" fill="#fff"/>
  </g>
</svg>
