<svg xmlns="http://www.w3.org/2000/svg" width="16.17" height="16.172" viewBox="0 0 16.17 16.172">
  <path id="home_gray" data-name="home gray" d="M15.735,7.033h0l-6.6-6.6a1.488,1.488,0,0,0-2.105,0L.439,7.029l-.007.007a1.488,1.488,0,0,0,.991,2.536l.046,0h.263v4.855a1.744,1.744,0,0,0,1.742,1.742H6.055a.474.474,0,0,0,.474-.474V11.891a.8.8,0,0,1,.795-.795H8.846a.8.8,0,0,1,.795.795V15.7a.474.474,0,0,0,.474.474H12.7a1.744,1.744,0,0,0,1.742-1.742V9.574h.244a1.489,1.489,0,0,0,1.054-2.541Zm0,0" transform="translate(0 0.001)" fill="#929ca1"/>
</svg>
