<svg xmlns="http://www.w3.org/2000/svg" xmlns:xlink="http://www.w3.org/1999/xlink" width="22.014" height="22.035" viewBox="0 0 22.014 22.035">
  <defs>
    <linearGradient id="linear-gradient" x1="0.936" y1="0.099" x2="0.095" y2="0.958" gradientUnits="objectBoundingBox">
      <stop offset="0" stop-color="#cb39a4"/>
      <stop offset="0.51" stop-color="#f9514a"/>
      <stop offset="1" stop-color="#ffd654"/>
    </linearGradient>
  </defs>
  <path id="Path_446" data-name="Path 446" d="M14.14,3.141c-4.508,0-8.79-.4-10.425,3.8-.675,1.734-.577,3.985-.577,7.209,0,2.829-.091,5.488.577,7.208,1.632,4.2,5.947,3.8,10.422,3.8,4.317,0,8.769.45,10.424-3.8.677-1.751.577-3.969.577-7.208,0-4.3.237-7.075-1.848-9.159-2.111-2.111-4.965-1.847-9.156-1.847Zm-.986,1.983c9.4-.015,10.6-1.061,9.941,13.466-.235,5.138-4.146,4.574-8.954,4.574-8.766,0-9.018-.251-9.018-9.022,0-8.873.7-9.012,8.031-9.02Zm6.859,1.827a1.32,1.32,0,1,0,1.32,1.32A1.32,1.32,0,0,0,20.013,6.951ZM14.14,8.495a5.651,5.651,0,1,0,5.648,5.652A5.651,5.651,0,0,0,14.14,8.495Zm0,1.983c4.849,0,4.855,7.337,0,7.337S9.285,10.478,14.14,10.478Z" transform="translate(-3.133 -3.13)" fill="url(#linear-gradient)"/>
</svg>
