<svg xmlns="http://www.w3.org/2000/svg" width="17.363" height="15.667" viewBox="0 0 17.363 15.667"><defs><style>.a{fill:#1d1d1d;}</style></defs><g transform="translate(0 -25)"><g transform="translate(0 25)"><path class="a" d="M16.854,25H.509a.509.509,0,1,0,0,1.017H1.729V40.158a.509.509,0,0,0,.706.469L5.46,39.354l3.024,1.273a.509.509,0,0,0,.395,0L11.9,39.354l3.024,1.273a.509.509,0,0,0,.706-.469V26.017h1.221a.509.509,0,1,0,0-1.017ZM5.019,35.682A.678.678,0,1,1,5.7,35,.678.678,0,0,1,5.019,35.682Zm0-2.713a.678.678,0,1,1,.678-.678A.678.678,0,0,1,5.019,32.969Zm.61-4.748a.509.509,0,0,1,.509-.509h5.087a.509.509,0,1,1,0,1.017H6.138A.509.509,0,0,1,5.629,28.222Zm6.782,7.291H7.664a.509.509,0,1,1,0-1.017h4.748a.509.509,0,1,1,0,1.017Zm0-2.713H7.664a.509.509,0,0,1,0-1.017h4.748a.509.509,0,0,1,0,1.017Z" transform="translate(0 -25)"/></g></g></svg>