<svg xmlns="http://www.w3.org/2000/svg" width="256.129" height="490.787" viewBox="0 0 256.129 490.787">
  <g id="left-arrow" transform="translate(-117.329 0)">
    <path id="Path_3" data-name="Path 3" d="M362.671,490.787a10.663,10.663,0,0,1-7.552-3.115L120.452,253.006a10.667,10.667,0,0,1,0-15.083L355.119,3.256a10.667,10.667,0,1,1,15.345,14.821c-.086.089-.173.176-.262.262L143.087,245.454,370.223,472.569a10.666,10.666,0,0,1-7.552,18.218Z" fill="#f44336"/>
    <path id="Path_4" data-name="Path 4" d="M362.671,490.787a10.663,10.663,0,0,1-7.552-3.115L120.452,253.006a10.667,10.667,0,0,1,0-15.083L355.119,3.256a10.667,10.667,0,1,1,15.345,14.821c-.086.089-.173.176-.262.262L143.087,245.454,370.223,472.569a10.666,10.666,0,0,1-7.552,18.218Z" fill="#929ca1"/>
  </g>
</svg>
