<svg xmlns="http://www.w3.org/2000/svg" width="91.126" height="76.569" viewBox="0 0 91.126 76.569">
  <path id="left_icon" d="M31.133,76.57A15.194,15.194,0,0,1,15.98,63.21H66.833A15.185,15.185,0,0,0,82.089,48.115V21.768a15.057,15.057,0,0,1,9.037,13.8v25.9A15.186,15.186,0,0,1,75.87,76.57ZM15.256,56.094A15.193,15.193,0,0,1,0,41V15.095A15.192,15.192,0,0,1,15.256,0H59.993A15.193,15.193,0,0,1,75.249,15.095V41A15.194,15.194,0,0,1,59.993,56.094ZM12.027,38.753A5.351,5.351,0,0,0,17.372,44.1H56.12a5.345,5.345,0,0,0,0-10.69H17.372A5.351,5.351,0,0,0,12.027,38.753Zm0-17.372a5.351,5.351,0,0,0,5.345,5.345H36.077a5.345,5.345,0,0,0,0-10.69H17.372A5.351,5.351,0,0,0,12.027,21.381Z" transform="translate(0 -0.001)" fill="#d6d6d6"/>
</svg>
