<svg xmlns="http://www.w3.org/2000/svg" width="21.117" height="21.117" viewBox="0 0 21.117 21.117"><defs><style>.a{fill:#1d1d1d;}</style></defs><g transform="translate(0 9.899)"><path class="a" d="M19.261,240H1.856A1.859,1.859,0,0,0,0,241.856v7.507a1.858,1.858,0,0,0,1.856,1.856H19.261a1.858,1.858,0,0,0,1.856-1.856v-7.507A1.859,1.859,0,0,0,19.261,240ZM5.568,248.744H3.093a.618.618,0,0,1-.619-.619v-4.949a.619.619,0,0,1,1.237,0v4.331H5.568A.619.619,0,0,1,5.568,248.744Zm3.176-.619a.619.619,0,0,1-1.237,0v-4.949a.619.619,0,0,1,1.237,0Zm4.931-4.8-1.237,4.949a.619.619,0,0,1-1.2,0L10,243.326a.618.618,0,0,1,1.2-.3l.637,2.548.637-2.548A.618.618,0,0,1,13.674,243.326Zm4.349,1.706a.619.619,0,0,1,0,1.237H16.168v1.237h1.856a.619.619,0,0,1,0,1.237H15.549a.618.618,0,0,1-.619-.619v-4.949a.618.618,0,0,1,.619-.619h2.475a.619.619,0,0,1,0,1.237H16.168v1.237Z" transform="translate(0 -240)"/></g><g transform="translate(4.436 2.87)"><path class="a" d="M107.549,70.287l5.1,5.1h2.045l2.505-2.505C113.9,69.837,109.776,68.756,107.549,70.287Z" transform="translate(-107.549 -69.597)"/></g><g transform="translate(2.881 4.439)"><path class="a" d="M70.53,107.629a5.2,5.2,0,0,0-.452,4.222h4.674Z" transform="translate(-69.847 -107.629)"/></g><g transform="translate(3.539)"><path class="a" d="M92.792,0a10.431,10.431,0,0,0-6.978,2.665l.013.013c2.686-2.026,7.6-.927,11.408,2.6l2.618-2.618A10.641,10.641,0,0,0,92.792,0Z" transform="translate(-85.814 0)"/></g><g transform="translate(15.83 3.555)"><path class="a" d="M386.422,86.188l-2.607,2.607a16.052,16.052,0,0,1,1.9,2.5h1.535a3.07,3.07,0,0,1,1.766.56A10.451,10.451,0,0,0,386.422,86.188Z" transform="translate(-383.815 -86.188)"/></g><g transform="translate(0.09 3.555)"><path class="a" d="M4.788,86.194l-.006-.006a10.451,10.451,0,0,0-2.59,5.666A3.071,3.071,0,0,1,3.943,91.3,6.145,6.145,0,0,1,4.788,86.194Z" transform="translate(-2.192 -86.188)"/></g><g transform="translate(13.331 7.036)"><path class="a" d="M324.836,170.6l-1.625,1.625h2.925A15.239,15.239,0,0,0,324.836,170.6Z" transform="translate(-323.211 -170.603)"/></g></svg>