<svg xmlns="http://www.w3.org/2000/svg" width="25.184" height="27.483" viewBox="0 0 25.184 27.483"><defs><style>.a{fill:#1d1d1d;}</style></defs><g transform="translate(-311.115 -88.1)"><path class="a" d="M322.958,157.764c-.58-.086-1.174-.143-1.746-.265a12.249,12.249,0,0,1-8-5.411,12.534,12.534,0,0,1,1.725-15.946,12.217,12.217,0,0,1,3.693-2.491,1.132,1.132,0,0,1,1.539.544,1.115,1.115,0,0,1-.58,1.524,10.524,10.524,0,0,0-3.7,2.741,10.3,10.3,0,1,0,12.038-2.691,1.165,1.165,0,0,1-.773-1,1.085,1.085,0,0,1,.515-1.052,1.167,1.167,0,0,1,1.174-.05,12.366,12.366,0,0,1,4.652,3.586,12.01,12.01,0,0,1,2.748,8.846,12.3,12.3,0,0,1-8.009,10.814,11.085,11.085,0,0,1-3.564.809c-.072.007-.136.029-.208.043Z" transform="translate(0 -42.182)"/><path class="a" d="M472.562,88.1c.021.014.036.036.057.05a1.14,1.14,0,0,1,.816,1.217v9.039a1.127,1.127,0,0,1-1.138,1.138,1.114,1.114,0,0,1-1.138-1.138c-.007-3.049,0-6.1,0-9.154a1.211,1.211,0,0,1,.873-1.152Z" transform="translate(-148.587)"/></g></svg>