<?xml version="1.0" encoding="utf-8"?>
<!-- Generator: Adobe Illustrator 21.0.2, SVG Export Plug-In . SVG Version: 6.00 Build 0)  -->
<svg version="1.1" id="Layer_1" xmlns="http://www.w3.org/2000/svg" xmlns:xlink="http://www.w3.org/1999/xlink" x="0px" y="0px"
	 viewBox="0 0 82 66" style="enable-background:new 0 0 82 66;" xml:space="preserve">
<style type="text/css">
	.st0{fill:#FFFFFF;}
</style>
<path id="XMLID_86_" class="st0" d="M7.7,52.6c-0.2,0.2-0.2,0.6,0.1,0.7c0.9,0.5,1.5,1.4,1.5,2.9c0,2.5-1.7,3.7-4.1,3.7H0.5
	c-0.3,0-0.5-0.2-0.5-0.5v-12C0,47.2,0.2,47,0.5,47h3.8c2.4,0,3.8,1.4,3.8,3.5C8.3,51.5,8.1,52.2,7.7,52.6z M3.8,52
	c0.8,0,1.2-0.5,1.2-1.2s-0.5-1.3-1.2-1.3H3.3V52H3.8z M4.6,57.6c0.9,0,1.5-0.6,1.5-1.5c0-1.1-0.7-1.6-1.5-1.6H3.7
	c-0.3,0-0.5,0.2-0.5,0.5v2.2c0,0.3,0.2,0.5,0.5,0.5C3.7,57.6,4.6,57.6,4.6,57.6z"/>
<path id="XMLID_181_" class="st0" d="M15.1,60.2c-3.1,0-4.6-2.2-4.6-4.4s1.5-4.4,4.6-4.4c3.1,0,4.6,2.2,4.6,4.4
	C19.7,58,18.1,60.2,15.1,60.2z M15.1,57.5c1,0,1.7-0.8,1.7-1.7c0-1-0.8-1.7-1.7-1.7s-1.7,0.8-1.7,1.7C13.2,56.8,14.1,57.5,15.1,57.5
	z"/>
<path id="XMLID_187_" class="st0" d="M20.8,52.3c0-0.4,0.3-0.7,0.7-0.7H24v0.8c0.4-0.4,1.1-1,2.7-1c2.3,0,3.3,1.2,3.3,3.3v4.6
	c0,0.4-0.3,0.7-0.7,0.7h-1.8c-0.4,0-0.7-0.3-0.7-0.7v-3.9c0-1.1-0.2-1.8-1.3-1.8c-1.2,0-1.5,0.9-1.5,1.4v4.2c0,0.4-0.3,0.7-0.7,0.7
	h-1.8c-0.4,0-0.7-0.3-0.7-0.7L20.8,52.3L20.8,52.3z"/>
<path id="XMLID_190_" class="st0" d="M40.7,59.4c0,0.4-0.3,0.6-0.6,0.6h-2.2v-0.6c-0.4,0.3-1.1,0.7-2.5,0.7c-2.8,0-4.2-2.2-4.2-4.3
	c0-2.2,1.4-4.3,4.2-4.3c1.4,0,2.1,0.3,2.5,0.7v-0.6h2.2c0.4,0,0.6,0.3,0.6,0.6V59.4z M36.1,57.5c1,0,1.7-0.8,1.7-1.7
	c0-1-0.8-1.7-1.7-1.7c-1,0-1.7,0.8-1.7,1.7C34.4,56.8,35.1,57.5,36.1,57.5z"/>
<path id="XMLID_202_" class="st0" d="M52.3,50.3v1.2c0,0.3,0.2,0.6,0.6,0.6h2.6c0.3,0,0.6,0.2,0.6,0.6v1.7c0,0.3-0.2,0.6-0.6,0.6
	h-2.6c-0.3,0-0.6,0.2-0.6,0.6v4c0,0.3-0.2,0.6-0.6,0.6h-2.1c-0.3,0-0.6-0.2-0.6-0.6V47.6c0-0.3,0.2-0.6,0.6-0.6h6
	c0.3,0,0.6,0.2,0.6,0.6v1.7c0,0.3-0.2,0.6-0.6,0.6h-2.7C52.6,49.8,52.3,50,52.3,50.3z"/>
<path id="XMLID_204_" class="st0" d="M59.3,50.1c-1,0-1.7-0.8-1.7-1.7s0.8-1.7,1.7-1.7c1,0,1.7,0.8,1.7,1.7S60.3,50.1,59.3,50.1z
	 M60.5,60h-2.2c-0.3,0-0.5-0.2-0.5-0.5v-7.5c0-0.3,0.2-0.5,0.5-0.5h2.2c0.3,0,0.5,0.2,0.5,0.5v7.5C61,59.8,60.8,60,60.5,60z"/>
<path id="XMLID_208_" class="st0" d="M71.5,47v12.5c0,0.3-0.2,0.5-0.5,0.5h-2.3v-0.6c-0.4,0.3-1.2,0.7-2.5,0.7
	c-2.8,0-4.2-2.2-4.2-4.3c0-2.2,1.4-4.3,4.2-4.3c0.9,0,1.4,0.1,1.8,0.3c0.3,0.1,0.7-0.1,0.7-0.5v-4.3c0-0.3,0.2-0.5,0.5-0.5H71
	C71.2,46.5,71.5,46.7,71.5,47z M66.9,57.5c1,0,1.7-0.8,1.7-1.7c0-1-0.8-1.7-1.7-1.7s-1.7,0.8-1.7,1.7C65.2,56.8,66,57.5,66.9,57.5z"
	/>
<path id="XMLID_303_" class="st0" d="M77.3,57.9c0.9,0,1.2-0.2,1.4-0.5c0.1-0.1,0.2-0.2,0.4-0.2H81c0.3,0,0.6,0.3,0.4,0.6
	c-0.6,1.2-1.6,2.4-4.2,2.4c-3,0-4.4-2.2-4.4-4.4c0-2.2,1.6-4.5,4.6-4.5c3.3,0,4.7,2.2,4.6,4.6c-0.2,0.2-0.3,0.3-0.5,0.5h-5.7
	C75.9,57.3,76.4,57.9,77.3,57.9z M77.3,53.5c-1,0-1.4,0.7-1.4,1.2h3C78.7,54.2,78.3,53.5,77.3,53.5z"/>
<g>
	<g>
		<path class="st0" d="M56.3,5.1H35.8c-4.3,0-8.4,2.2-10.7,6L14.7,28.3c-2.1,3.5,0.4,8,4.5,8h21.6c2.2,0,4.2-1.2,5.3-3l2.9-5
			c0.7-1.3-0.1-2.9-1.6-2.9l-1.2-0.1c0,0-0.7,0-0.5-0.6c0.2-0.6,0.8-0.7,0.8-0.7l8.3-0.5c0.9-0.1,1.8-0.7,2.3-1.5l4.5-7.6
			C64,10.2,61,5.1,56.3,5.1z M42.3,21.8l-12.9,4.6c-0.8,0.4-1.6-0.6-1.2-1.4l5.2-9.1c0.2-0.5,0.9-0.7,1.4-0.4l7.7,4.6
			C43.2,20.5,43.1,21.5,42.3,21.8z"/>
	</g>
</g>
<path id="XMLID_84_" class="st0" d="M63.4,10.2c1.2,1.9,0.8,5-0.8,8l-4.5,7.6c-0.5,0.8-1.3,1.4-2.3,1.5c0,0-3.6,0.1-4.8,0.1
	c-0.1,0-0.2,0.2-0.2,0.4c0.4,0.9,0,2.1-0.4,2.9c-0.7,1.6-1.5,3.2-2.3,4.7c-1.1,1.9-3,3-5.3,3H21.3c-0.1,0-0.2,0-0.5,0
	c0.8,1.8,2.6,2.9,4.7,2.9h21.6c2.2,0,4.2-1.2,5.3-3l2.9-5c0.7-1.3-0.1-2.9-1.6-2.9l-1.2-0.1c0,0-0.7,0-0.5-0.6
	c0.2-0.6,0.8-0.7,0.8-0.7l8.3-0.5c0.9-0.1,1.8-0.7,2.3-1.5l4.5-7.7C70.2,15.3,67.7,10.6,63.4,10.2z"/>
</svg>
