<svg id="XMLID_47_" xmlns="http://www.w3.org/2000/svg" xmlns:xlink="http://www.w3.org/1999/xlink" width="53" height="40.393" viewBox="0 0 53 40.393">
  <defs>
    <linearGradient id="linear-gradient" x1="1.114" y1="-0.332" x2="0.126" y2="1.158" gradientUnits="objectBoundingBox">
      <stop offset="0" stop-color="#ec1b25"/>
      <stop offset="1" stop-color="#ea1979"/>
    </linearGradient>
    <linearGradient id="linear-gradient-2" x1="0.999" y1="-0.244" x2="0.036" y2="1.101" xlink:href="#linear-gradient"/>
  </defs>
  <path id="XMLID_358_" d="M57.075,30.1l-5.148,8.672a11.85,11.85,0,0,1-10.249,5.8H35.325a3.933,3.933,0,0,0-3.432,1.948L29.482,50.6a3.155,3.155,0,0,1-2.69,1.53H14.456A9.126,9.126,0,0,1,10.7,50.876c.51,4.777,6.214,5.287,6.214,5.287H27.627A4.7,4.7,0,0,0,31.754,53.8l2.18-3.664a4.048,4.048,0,0,1,3.432-1.948h5.148a13.955,13.955,0,0,0,12.058-6.864l4.406-7.42a4.68,4.68,0,0,0,.325-.7A6.4,6.4,0,0,0,58.235,26.9,12.149,12.149,0,0,1,57.075,30.1Z" transform="translate(-6.654 -15.77)" fill="url(#linear-gradient)"/>
  <path id="XMLID_329_" d="M46,2.9H24.711a14.074,14.074,0,0,0-12.1,6.91L2.822,26.273A5.99,5.99,0,0,0,7.97,35.316h12.2a3.407,3.407,0,0,0,2.922-1.67L25.5,29.566a4.338,4.338,0,0,1,3.756-2.133H35.7a11.577,11.577,0,0,0,9.971-5.658l5.658-9.553A6.171,6.171,0,0,0,46,2.9Z" transform="translate(-1.976 -2.9)" fill="url(#linear-gradient-2)"/>
  <path id="XMLID_198_" d="M69,23.169,55.6,27.9a1.041,1.041,0,0,1-1.252-1.484l5.38-9.507a1.049,1.049,0,0,1,1.438-.371l8.023,4.777A1.043,1.043,0,0,1,69,23.169Z" transform="translate(-29.989 -10.137)" fill="#fff"/>
</svg>
