<?xml version="1.0" encoding="utf-8"?>
<!-- Generator: Adobe Illustrator 19.2.1, SVG Export Plug-In . SVG Version: 6.00 Build 0)  -->
<svg version="1.1" id="Layer_1" xmlns="http://www.w3.org/2000/svg" xmlns:xlink="http://www.w3.org/1999/xlink" x="0px" y="0px"
	 viewBox="0 0 351 91" style="enable-background:new 0 0 351 91;" xml:space="preserve">
<style type="text/css">
	.st0{fill:url(#XMLID_5_);}
	.st1{fill:url(#XMLID_6_);}
	.st2{fill:#FFFFFF;}
</style>
<g>
	<path d="M148,49.5h-4.6v13.2h-8.7V27.1H148c6.4,0,11.4,4.2,11.4,11.2C159.4,45.3,154.4,49.5,148,49.5z M147.2,41.9
		c2.5,0,3.6-1.4,3.6-3.5c0-2.1-1.4-3.6-3.6-3.6h-3.8v7.1H147.2z"/>
	<path d="M163.6,62.8v-37h8.7v37H163.6z"/>
	<path d="M203.1,62.8h-7.6v-1.4c-1.1,0.8-2.9,1.9-6.9,1.9c-7.6,0-11.4-5.9-11.4-11.9c0-5.9,3.8-11.9,11.4-11.9
		c3.8,0,5.8,0.8,6.9,1.8v-1.7h7.6V62.8z M190.4,55.9c2.6,0,4.7-2.1,4.7-4.7c0-2.6-2.1-4.7-4.7-4.7c-2.6,0-4.7,2.1-4.7,4.7
		C185.6,53.8,187.8,55.9,190.4,55.9z"/>
	<path d="M228.4,39.8h8.7l-18.4,33H210l7.4-13.4l-11-19.6h8.6l6.6,12.1L228.4,39.8z"/>
	<path d="M265.5,51.4c0,5.9-3.8,11.9-11.4,11.9c-3.6,0-5.7-1.1-6.9-1.9v1.4h-7.6v-37h7.6v15.5c1.3-0.9,2.8-1.8,6.9-1.8
		C261.8,39.5,265.5,45.4,265.5,51.4z M252.1,55.9c2.6,0,4.8-2.1,4.8-4.7c0-2.6-2.1-4.7-4.8-4.7c-2.6,0-4.7,2.1-4.7,4.7
		C247.3,53.8,249.5,55.9,252.1,55.9z"/>
	<path d="M294.1,62.8h-7.6v-1.4c-1.1,0.8-2.9,1.9-6.9,1.9c-7.6,0-11.4-5.9-11.4-11.9c0-5.9,3.8-11.9,11.4-11.9
		c3.8,0,5.8,0.8,6.9,1.8v-1.7h7.6V62.8z M281.4,55.9c2.6,0,4.7-2.1,4.7-4.7c0-2.6-2.1-4.7-4.7-4.7c-2.6,0-4.7,2.1-4.7,4.7
		C276.7,53.8,278.8,55.9,281.4,55.9z"/>
	<path d="M311,55.6c2.7,0,4.1-0.6,5.2-1.7v7.7c-1.3,0.7-3,1.7-7,1.7c-7.8,0-11.7-5.9-11.7-11.9c0-5.9,3.9-11.9,11.7-11.9
		c3,0,5.5,0.7,7,1.3v7.5c-1.2-0.7-2.3-1.4-5.2-1.4c-2.9,0-4.9,1.8-4.9,4.5C306.1,54.1,308.1,55.6,311,55.6z"/>
	<path d="M337.6,39.7h9.9l-10.4,10.7l12.2,12.3h-10.9l-9.3-9.4v9.4h-8.7v-37h8.7v22.1L337.6,39.7z"/>
</g>
<g id="XMLID_47_">
	<linearGradient id="XMLID_5_" gradientUnits="userSpaceOnUse" x1="128.3315" y1="5.9446" x2="23.9867" y2="99.9838">
		<stop  offset="0" style="stop-color:#EC1B25"/>
		<stop  offset="1" style="stop-color:#EA1979"/>
	</linearGradient>
	<path id="XMLID_358_" class="st0" d="M110.7,33.8L99.6,52.5C95,60.3,86.6,65,77.5,65H63.8c-3.1,0-5.9,1.6-7.4,4.2L51.2,78
		c-1.2,2-3.4,3.3-5.8,3.3H18.8c-3.6,0-8.1-2.7-8.1-2.7C11.8,88.9,24.1,90,24.1,90h23.1c3.7,0,7.1-1.9,8.9-5.1l4.7-7.9
		c1.6-2.6,4.4-4.2,7.4-4.2h11.1c10.7,0,20.6-5.6,26-14.8l9.5-16c0.3-0.5,0.5-1,0.7-1.5c2.6-8.7-2.3-13.6-2.3-13.6
		S112.4,30.9,110.7,33.8z"/>
	<linearGradient id="XMLID_6_" gradientUnits="userSpaceOnUse" x1="110.1852" y1="-14.1904" x2="5.8403" y2="79.8488">
		<stop  offset="0" style="stop-color:#EC1B25"/>
		<stop  offset="1" style="stop-color:#EA1979"/>
	</linearGradient>
	<path id="XMLID_329_" class="st1" d="M96.9,2.9H51c-10.7,0-20.7,5.7-26.1,14.9L3.8,53.3c-5.1,8.6,1.1,19.5,11.1,19.5h26.3
		c2.6,0,5-1.4,6.3-3.6l5.2-8.8c1.7-2.9,4.8-4.6,8.1-4.6h13.9c8.8,0,17-4.6,21.5-12.2l12.2-20.6C113.7,14.2,107.3,2.9,96.9,2.9z"/>
	<path id="XMLID_198_" class="st2" d="M86.1,31L57.2,41.2c-1.9,0.7-3.7-1.4-2.7-3.2l11.6-20.5c0.6-1.1,2-1.4,3.1-0.8L86.5,27
		C88.1,27.9,87.8,30.3,86.1,31z"/>
</g>
</svg>
