<svg xmlns="http://www.w3.org/2000/svg" xmlns:xlink="http://www.w3.org/1999/xlink" width="114.265" height="87.101" viewBox="0 0 114.265 87.101">
  <defs>
    <linearGradient id="linear-gradient" x1="0.896" y1="-0.061" x2="0.126" y2="1.158" gradientUnits="objectBoundingBox">
      <stop offset="0" stop-color="#383838"/>
      <stop offset="1" stop-color="#020202"/>
    </linearGradient>
  </defs>
  <g id="blacklogo" transform="translate(-1981 164)">
    <path id="Union_35" data-name="Union 35" d="M45.2,87.1H22.1S9.8,86,8.7,75.7c0,0,4.5,2.7,8.1,2.7H43.4a6.8,6.8,0,0,0,5.8-3.3l5.2-8.8a8.483,8.483,0,0,1,7.4-4.2H75.5A25.552,25.552,0,0,0,97.6,49.6l11.1-18.7a26.173,26.173,0,0,0,2.5-6.9s4.9,4.9,2.3,13.6a10.146,10.146,0,0,1-.7,1.5l-9.5,16a30.089,30.089,0,0,1-26,14.8H66.2a8.728,8.728,0,0,0-7.4,4.2L54.1,82a10.122,10.122,0,0,1-8.788,5.1ZM12.9,69.9A12.916,12.916,0,0,1,1.8,50.4L22.9,14.9A30.349,30.349,0,0,1,49,0H94.9a13.307,13.307,0,0,1,11.5,20.1L94.2,40.7A24.963,24.963,0,0,1,72.7,52.9H58.8a9.356,9.356,0,0,0-8.1,4.6l-5.2,8.8a7.347,7.347,0,0,1-6.3,3.6Z" transform="translate(1981 -164)" fill="url(#linear-gradient)"/>
    <path id="XMLID_198_" d="M86.1,31,57.2,41.2A2.244,2.244,0,0,1,54.5,38L66.1,17.5a2.261,2.261,0,0,1,3.1-.8L86.5,27a2.25,2.25,0,0,1-.4,4Z" transform="translate(1979.004 -166.9)" fill="#fff"/>
  </g>
</svg>
