<svg xmlns="http://www.w3.org/2000/svg" width="18.346" height="18.502" viewBox="0 0 18.346 18.502">
  <path id="Marketplaces" d="M.922,18.5a.922.922,0,0,1,0-1.844h.389V7.739a2.316,2.316,0,0,0,1.308-.418,2.244,2.244,0,0,0,.865.372,2.359,2.359,0,0,0,.448.046,2.081,2.081,0,0,0,.293-.026V9.472H8.516V7.631a2.3,2.3,0,0,0,.656.108,2.263,2.263,0,0,0,.655-.108V9.472h4.294V7.713a2.039,2.039,0,0,0,.29.026,2.553,2.553,0,0,0,.448-.043,2.318,2.318,0,0,0,.869-.375,2.294,2.294,0,0,0,1.3.418v8.919h.393a.922.922,0,0,1,0,1.844Zm8.905-4.894h3.557a.736.736,0,0,0,.737-.738V10.782H9.827Zm-5.6-.738a.736.736,0,0,0,.734.738H8.516V10.782H4.225ZM15.777,5.819l-.068-.228a1.312,1.312,0,0,1-.655.992,1.385,1.385,0,0,1-.383.147,1.4,1.4,0,0,1-.26.026A1.307,1.307,0,0,1,13.13,5.7L13.1,5.543a1.306,1.306,0,0,1-.665,1.047,1.351,1.351,0,0,1-.511.162c-.042,0-.085,0-.128,0a1.311,1.311,0,0,1-1.3-1.179l-.01-.1A1.323,1.323,0,0,1,9.172,6.755a1.316,1.316,0,0,1-.636-.171,1.294,1.294,0,0,1-.669-1.107l-.01.1a1.313,1.313,0,0,1-1.3,1.179c-.043,0-.086,0-.132,0A1.314,1.314,0,0,1,5.249,5.543L5.216,5.7A1.309,1.309,0,0,1,3.932,6.758a1.349,1.349,0,0,1-.257-.026,1.367,1.367,0,0,1-.382-.147,1.317,1.317,0,0,1-.659-.992l-.068.228a1.307,1.307,0,0,1-1.255.938A1.315,1.315,0,0,1,.056,5.072L1.175,1.321A1.851,1.851,0,0,1,2.95,0H15.4a1.85,1.85,0,0,1,1.775,1.321l1.12,3.751a1.312,1.312,0,0,1-.883,1.63,1.348,1.348,0,0,1-.376.056A1.314,1.314,0,0,1,15.777,5.819Z" fill="#1d1d1d"/>
</svg>
