<svg xmlns="http://www.w3.org/2000/svg" width="21.309" height="19.534" viewBox="0 0 21.309 19.534"><g transform="translate(0 -17.067)"><g transform="translate(0 17.067)"><g transform="translate(0 0)"><path d="M20.421,17.067H.888a.888.888,0,1,0,0,1.776H20.421a.888.888,0,1,0,0-1.776Z" transform="translate(0 -17.067)"/></g></g><g transform="translate(0 25.946)"><path d="M20.421,187.733H.888a.888.888,0,1,0,0,1.776H20.421a.888.888,0,1,0,0-1.776Z" transform="translate(0 -187.733)"/></g><g transform="translate(0 34.825)"><path d="M20.421,358.4H.888a.888.888,0,0,0,0,1.776H20.421a.888.888,0,1,0,0-1.776Z" transform="translate(0 -358.4)"/></g></g></svg>