<svg id="Messages_gray" data-name="Messages gray" xmlns="http://www.w3.org/2000/svg" width="16.17" height="16.17" viewBox="0 0 16.17 16.17">
  <g id="Group_10175" data-name="Group 10175">
    <path id="Path_575" data-name="Path 575" d="M85.945,18.56,84.857,15.4A7.918,7.918,0,0,0,77.879,4.012a7.909,7.909,0,1,0-.128,15.817h.012a7.933,7.933,0,0,0,3.463-.8l3.165,1.088a1.232,1.232,0,0,0,.4.067,1.224,1.224,0,0,0,1.153-1.621Zm-7.429-3.9H74.431a.557.557,0,1,1,0-1.115h4.084a.557.557,0,0,1,0,1.115Zm2.556-2.292h-6.64a.557.557,0,0,1,0-1.115h6.64a.557.557,0,1,1,0,1.115Zm0-2.292h-6.64a.557.557,0,0,1,0-1.115h6.64a.557.557,0,1,1,0,1.115Z" transform="translate(-69.842 -4.011)" fill="#929ca1"/>
  </g>
</svg>
