<svg xmlns="http://www.w3.org/2000/svg" width="12.719" height="14.11" viewBox="0 0 12.719 14.11"><defs><style>.a{fill:#464646;}</style></defs><path class="a" d="M11.955,8.7,10.911,7.652l-4.7-4.7a2.214,2.214,0,0,0-3.13,3.13l4.7,4.7a.492.492,0,0,0,.7-.7l-4.7-4.7A1.23,1.23,0,0,1,5.519,3.652l4.7,4.7L11.26,9.391a2.214,2.214,0,1,1-3.132,3.131l-.869-.87-4.87-4.87-.348-.348A3.2,3.2,0,0,1,6.563,1.912L11.78,7.13a.492.492,0,1,0,.7-.7L7.259,1.217A4.181,4.181,0,0,0,1.345,7.13l5.218,5.218.871.87A3.2,3.2,0,0,0,11.955,8.7Zm0,0" transform="translate(-0.128 0.001)"/></svg>