<svg xmlns="http://www.w3.org/2000/svg" width="72.999" height="73" viewBox="0 0 72.999 73">
  <g id="Group_9212" data-name="Group 9212" transform="translate(-886 -507)">
    <path id="Path_497" data-name="Path 497" d="M89.125,133.848a14.659,14.659,0,0,0-10.362,4.3l10.078,10.09L97.9,136.781a14.564,14.564,0,0,0-8.772-2.933Zm0,0" transform="translate(819.199 393.598)" fill="#9bc9ff"/>
    <path id="Path_498" data-name="Path 498" d="M260.394,293.47a14.612,14.612,0,0,0,1.369-19.135L250.3,283.392Zm0,0" transform="translate(673.86 274.569)" fill="#9bc9ff"/>
    <path id="Path_499" data-name="Path 499" d="M163.913,40.168a39.01,39.01,0,0,0-11.744,9.946l-5.768,7.3L137.344,68.87l-.807,1.02a2.444,2.444,0,0,0,.189,3.243l.907.907,5.332,5.333,6.24,6.239a2.444,2.444,0,0,0,3.243.189l1.02-.807,11.458-9.057,7.3-5.768a39.047,39.047,0,0,0,9.951-11.752Zm3.963,21.206a4.888,4.888,0,1,1,0-6.913A4.888,4.888,0,0,1,167.876,61.374Zm0,0" transform="translate(770.695 472.968)" fill="#9bc9ff"/>
    <path id="Path_500" data-name="Path 500" d="M146.633,261.91l5.332,5.332Zm0,0" transform="translate(761.695 285.097)" fill="#9bc9ff"/>
    <path id="Path_501" data-name="Path 501" d="M14,353.83c-2.863,2.863-5.542,15.911-5.542,15.911S21.5,367.063,24.368,364.2A7.332,7.332,0,1,0,14,353.83Zm0,0" transform="translate(878.766 209.037)" fill="#9bc9ff"/>
    <path id="Path_502" data-name="Path 502" d="M288.1,128.583a6.11,6.11,0,1,1,4.32-1.789A6.11,6.11,0,0,1,288.1,128.583Zm0-9.776a3.666,3.666,0,0,0-2.592,6.258,3.755,3.755,0,0,0,5.184,0,3.666,3.666,0,0,0-2.592-6.258Zm0,0" transform="translate(647.015 408.412)"/>
    <path id="Path_503" data-name="Path 503" d="M241.844,202.071l-3.457,3.456a1.222,1.222,0,1,0,1.728,1.728l3.457-3.456a1.222,1.222,0,0,0-1.728-1.728Zm0,0" transform="translate(684.273 336.086)"/>
    <path id="Path_504" data-name="Path 504" d="M210.9,247.321l-.864.864a1.222,1.222,0,1,0,1.727,1.728l.864-.864a1.222,1.222,0,0,0-1.728-1.728Zm0,0" transform="translate(708.305 297.748)"/>
    <path id="Path_505" data-name="Path 505" d="M132.872,2.384,132.8,1.325A1.223,1.223,0,0,0,131.67.2L130.611.118a40.254,40.254,0,0,0-34.719,15.2l-5.058,6.4a15.819,15.819,0,0,0-19.747,2.158,1.222,1.222,0,0,0,0,1.733l9.31,9.321-.132.167a3.666,3.666,0,0,0,.283,4.866l.043.042L78,42.6a6.12,6.12,0,0,0,0,8.642l3.753,3.753a6.122,6.122,0,0,0,8.642,0L92.987,52.4l.042.041a3.666,3.666,0,0,0,4.866.286l.167-.134,9.318,9.312a1.223,1.223,0,0,0,1.729,0,15.824,15.824,0,0,0,2.157-19.749l6.4-5.055a40.267,40.267,0,0,0,15.2-34.714Zm-59.151,22.4a13.372,13.372,0,0,1,15.6-1.135L81.925,33ZM88.667,53.256a3.672,3.672,0,0,1-5.186,0L79.728,49.5a3.674,3.674,0,0,1,0-5.186l2.593-2.59,8.937,8.936Zm22.659-2.582a13.355,13.355,0,0,1-3.119,8.6l-8.213-8.2,9.348-7.389a13.253,13.253,0,0,1,1.985,7Zm4.828-15.5L96.381,50.806a1.221,1.221,0,0,1-1.62-.094L82.279,38.234a1.221,1.221,0,0,1-.095-1.625l15.63-19.773a37.871,37.871,0,0,1,10.574-9.188L125.354,24.6a37.889,37.889,0,0,1-9.2,10.574Zm10.41-12.819L110.628,6.426A37.811,37.811,0,0,1,127.516,2.44c.964,0,1.934.037,2.9.112l.016.016a37.843,37.843,0,0,1-3.871,19.789Zm0,0" transform="translate(826.007 507.003)"/>
    <path id="Path_506" data-name="Path 506" d="M1.678,364.192a1.222,1.222,0,0,1-1.2-1.467c.282-1.372,2.84-13.494,5.877-16.53a8.554,8.554,0,0,1,12.1,12.1c-3.034,3.036-15.152,5.593-16.528,5.875a1.338,1.338,0,0,1-.248.023ZM12.4,346.134a6.067,6.067,0,0,0-4.319,1.789c-1.675,1.676-3.666,8.5-4.809,13.448,4.951-1.136,11.773-3.132,13.448-4.806a6.11,6.11,0,0,0-4.32-10.43Zm0,0" transform="translate(885.545 215.808)"/>
    <path id="Path_507" data-name="Path 507" d="M173.968,399.4a1.222,1.222,0,0,1-.864-2.086l5.183-5.184a1.222,1.222,0,0,1,1.728,1.728l-5.183,5.185a1.222,1.222,0,0,1-.864.358Zm0,0" transform="translate(739.571 175.059)"/>
    <path id="Path_508" data-name="Path 508" d="M237.968,407.4a1.222,1.222,0,0,1-.864-2.086l5.183-5.184a1.222,1.222,0,0,1,1.728,1.728l-5.183,5.185a1.222,1.222,0,0,1-.864.358Zm0,0" transform="translate(685.347 168.281)"/>
    <path id="Path_509" data-name="Path 509" d="M145.679,451.479a1.222,1.222,0,0,1-.864-2.086l.864-.864a1.222,1.222,0,1,1,1.728,1.728l-.864.864A1.222,1.222,0,0,1,145.679,451.479Zm0,0" transform="translate(763.539 127.299)"/>
    <path id="Path_510" data-name="Path 510" d="M29.968,263.4a1.222,1.222,0,0,1-.864-2.086l5.183-5.184a1.222,1.222,0,0,1,1.728,1.728l-5.183,5.184a1.222,1.222,0,0,1-.864.358Zm0,0" transform="translate(861.576 290.285)"/>
    <path id="Path_511" data-name="Path 511" d="M29.968,199.4a1.222,1.222,0,0,1-.864-2.086l5.183-5.184a1.222,1.222,0,0,1,1.728,1.728l-5.183,5.184a1.222,1.222,0,0,1-.864.358Zm0,0" transform="translate(861.576 344.509)"/>
    <path id="Path_512" data-name="Path 512" d="M1.679,315.479a1.222,1.222,0,0,1-.864-2.086l.864-.864a1.222,1.222,0,1,1,1.728,1.728l-.864.864A1.222,1.222,0,0,1,1.679,315.479Zm0,0" transform="translate(885.543 242.526)"/>
  </g>
</svg>
