<svg xmlns="http://www.w3.org/2000/svg" width="78.002" height="78.002" viewBox="0 0 78.002 78.002">
  <g id="Group_9536" data-name="Group 9536" transform="translate(-1057 -502)">
    <g id="check-mark_1_" data-name="check-mark (1)" transform="translate(1057 502)">
      <path id="Path_424" data-name="Path 424" d="M84.955,47.477A37.478,37.478,0,1,1,47.477,10,37.478,37.478,0,0,1,84.955,47.477Zm0,0" transform="translate(-8.476 -8.477)" fill="#67e2e2"/>
      <path id="Path_427" data-name="Path 427" d="M38.992,78Q37.5,78,36,77.887A38.992,38.992,0,1,1,70.7,61.733a1.523,1.523,0,1,1-2.474-1.779,35.954,35.954,0,1,0-8.27,8.27A1.524,1.524,0,0,1,61.734,70.7,39,39,0,0,1,38.992,78Zm0,0"/>
      <path id="Path_428" data-name="Path 428" d="M421.477,423a1.524,1.524,0,1,1,1.077-.446A1.534,1.534,0,0,1,421.477,423Zm0,0" transform="translate(-355.974 -355.975)"/>
    </g>
    <g id="user_6_" data-name="user (6)" transform="translate(1083 517)">
      <path id="Path_490" data-name="Path 490" d="M50.322,363.2a.947.947,0,1,0-.031,1.368.957.957,0,0,0,.031-1.368c-.176-.177.177.176,0,0Zm0,0" transform="translate(-49.681 -335.706)" stroke="#000" stroke-width="1"/>
      <path id="Path_491" data-name="Path 491" d="M23.881,29.472,27.889,22.3a3.207,3.207,0,0,0-2.8-4.771h-4.32A11.166,11.166,0,1,0,.424,11.168a11.105,11.105,0,0,0,1.991,6.356h-4.2a3.177,3.177,0,0,0-2.766,1.583A3.178,3.178,0,0,0-4.588,22.3l1.768,3.165a.948.948,0,0,0,1.654-.924l-1.768-3.165a1.322,1.322,0,0,1,1.146-1.952H4.074a11.146,11.146,0,0,0,15.036,0h5.979a1.322,1.322,0,0,1,1.146,1.952L21.85,29.223A9.48,9.48,0,0,0,12.339,38.6,9.332,9.332,0,0,0,13.8,43.632l-1.006,1.8a1.323,1.323,0,0,1-2.291,0L2.511,31.12a.948.948,0,0,0-1.654.924L8.85,46.357a3.207,3.207,0,0,0,5.6,0l.631-1.129a9.382,9.382,0,1,0,8.8-15.755ZM11.592,20.441a9.273,9.273,0,1,1,9.273-9.273,9.284,9.284,0,0,1-9.273,9.273Zm10.13,25.653A7.489,7.489,0,1,1,29.212,38.6a7.5,7.5,0,0,1-7.489,7.489Zm0,0" transform="translate(0)" stroke="#000" stroke-width="1"/>
      <path id="Path_492" data-name="Path 492" d="M307.017,467.558a.947.947,0,0,0-1.33.155l-3.562,4.506-1.23-.819a.948.948,0,0,0-1.049,1.578l1.957,1.3a.965.965,0,0,0,1.267-.2l4.1-5.19a.947.947,0,0,0-.156-1.33h0Zm0,0" transform="translate(-281.599 -432.302)" stroke="#000" stroke-width="1"/>
    </g>
  </g>
</svg>
