<svg xmlns="http://www.w3.org/2000/svg" width="84.396" height="98" viewBox="0 0 84.396 98"><defs><style>.a{fill:#ff4e61;}.b{fill:#5c73bc;}.c{fill:#fa0;}.d{fill:#2dc471;}.e{fill:#ffd02f;}.f{fill:#62d38f;}</style></defs><g transform="translate(-0.5)"><path class="a" d="M95.945,476.738a1.415,1.415,0,0,1-1.015-2.4l1.759-1.812A1.415,1.415,0,0,1,98.72,474.5l-1.759,1.812a1.409,1.409,0,0,1-1.015.43Zm0,0" transform="translate(-76.032 -381.734)"/><path class="a" d="M195.674,113.652a1.415,1.415,0,0,1-1.015-2.4l1.759-1.812a1.415,1.415,0,1,1,2.03,1.971l-1.759,1.812a1.411,1.411,0,0,1-1.015.429Zm0,0" transform="translate(-156.672 -88.145)"/><path class="b" d="M407.828,80.784a1.415,1.415,0,0,1-1.015-2.4l1.759-1.812a1.415,1.415,0,0,1,2.031,1.971l-1.759,1.812A1.411,1.411,0,0,1,407.828,80.784Zm0,0" transform="translate(-328.218 -61.568)"/><path class="c" d="M407.828,444.164a1.415,1.415,0,0,1-1.015-2.4l1.759-1.812a1.415,1.415,0,1,1,2.031,1.971l-1.759,1.812A1.411,1.411,0,0,1,407.828,444.164Zm0,0" transform="translate(-328.218 -355.395)"/><path class="c" d="M57.1,93.3a1.415,1.415,0,0,1-1.015-2.4l1.759-1.812a1.415,1.415,0,0,1,2.03,1.971l-1.759,1.812A1.411,1.411,0,0,1,57.1,93.3Zm0,0" transform="translate(-44.619 -71.691)"/><path class="d" d="M6.334,259.214a1.415,1.415,0,0,1-1.015-2.4L7.078,255a1.415,1.415,0,1,1,2.031,1.971L7.35,258.785a1.41,1.41,0,0,1-1.015.429Zm0,0" transform="translate(-3.574 -205.846)"/><path class="e" d="M170.894,193.923,166.3,196.41a1.635,1.635,0,0,1-2.356-1.764l.877-5.268a1.7,1.7,0,0,0-.467-1.48l-3.716-3.732a1.686,1.686,0,0,1,.9-2.853l5.134-.769a1.626,1.626,0,0,0,1.222-.915l2.3-4.793a1.6,1.6,0,0,1,2.912,0l2.3,4.793a1.628,1.628,0,0,0,1.222.915l5.135.769a1.686,1.686,0,0,1,.9,2.853l-3.715,3.732a1.7,1.7,0,0,0-.467,1.48l.877,5.268A1.634,1.634,0,0,1,177,196.41l-4.593-2.488a1.58,1.58,0,0,0-1.511,0Zm0,0" transform="translate(-129.09 -140.618)"/><path class="b" d="M214.262,406.576a1.415,1.415,0,0,1-1.415-1.415V383.036a1.415,1.415,0,1,1,2.829,0v22.125A1.415,1.415,0,0,1,214.262,406.576Zm0,0" transform="translate(-171.703 -308.576)"/><path class="b" d="M214.226,345.467H214.2a1.415,1.415,0,1,1,0-2.83h.022a1.415,1.415,0,0,1,0,2.83Zm0,0" transform="translate(-171.655 -277.054)"/><path class="c" d="M214.226,320.044H214.2a1.415,1.415,0,0,1,.006-2.829h.028a1.415,1.415,0,0,1-.006,2.829Zm0,0" transform="translate(-171.655 -256.498)"/><path class="a" d="M17.1,152.851a1.411,1.411,0,0,1-1.015-.429L.9,136.777a1.415,1.415,0,0,1,2.03-1.971l15.187,15.645a1.415,1.415,0,0,1-1.015,2.4Zm0,0" transform="translate(0 -108.656)"/><path class="c" d="M107.976,246.483a1.415,1.415,0,0,1-1.012-2.4l.016-.016A1.415,1.415,0,0,1,109,246.041l-.015.016a1.413,1.413,0,0,1-1.012.426Zm0,0" transform="translate(-85.76 -197.004)"/><path class="b" d="M125.427,264.459a1.415,1.415,0,0,1-1.015-2.4l.015-.016a1.415,1.415,0,0,1,2.031,1.972l-.016.016a1.411,1.411,0,0,1-1.015.429Zm0,0" transform="translate(-99.872 -211.539)"/><path class="c" d="M347.268,149.945a1.415,1.415,0,0,1-1.015-2.4L361.439,131.9a1.415,1.415,0,0,1,2.031,1.971l-15.187,15.644a1.411,1.411,0,0,1-1.015.429Zm0,0" transform="translate(-279.25 -106.306)"/><path class="a" d="M320.481,243.581a1.408,1.408,0,0,1-1.009-.423l-.016-.016a1.415,1.415,0,0,1,2.018-1.984l.016.016a1.415,1.415,0,0,1-1.009,2.407Zm0,0" transform="translate(-257.578 -194.657)"/><path class="c" d="M303.031,261.558a1.411,1.411,0,0,1-1.015-.429l-.016-.016a1.415,1.415,0,0,1,2.031-1.972l.016.016a1.415,1.415,0,0,1-1.015,2.4Zm0,0" transform="translate(-243.468 -209.193)"/><path class="f" d="M294.682,24.16a1.415,1.415,0,0,1-1.227-2.116L304.339,2.97a1.415,1.415,0,0,1,2.458,1.4L295.913,23.447A1.415,1.415,0,0,1,294.682,24.16Zm0,0" transform="translate(-236.731 -1.825)"/><path class="c" d="M275.472,138.327a1.409,1.409,0,0,1-.725-.2l-.019-.011a1.415,1.415,0,0,1,1.453-2.428l.019.011a1.415,1.415,0,0,1-.727,2.629Zm0,0" transform="translate(-221.182 -109.553)"/><path class="d" d="M262.965,160.244a1.408,1.408,0,0,1-.729-.2l-.019-.011a1.415,1.415,0,1,1,1.461-2.423l.019.011a1.415,1.415,0,0,1-.732,2.627Zm0,0" transform="translate(-211.07 -127.275)"/><path class="b" d="M88,24.16a1.414,1.414,0,0,1-1.231-.714L75.885,4.372a1.415,1.415,0,0,1,2.458-1.4L89.227,22.043A1.415,1.415,0,0,1,88,24.16Zm0,0" transform="translate(-60.805 -1.824)"/><path class="a" d="M153.11,138.327a1.415,1.415,0,0,1-.73-2.627l.019-.011a1.415,1.415,0,0,1,1.457,2.425l-.019.011A1.41,1.41,0,0,1,153.11,138.327Zm0,0" transform="translate(-122.254 -109.553)"/><path class="c" d="M165.618,160.244a1.415,1.415,0,0,1-.735-2.625l.019-.011a1.415,1.415,0,1,1,1.467,2.42l-.019.011A1.408,1.408,0,0,1,165.618,160.244Zm0,0" transform="translate(-132.368 -127.275)"/><path class="e" d="M365.763,297.68l-2.971,2.221a1.148,1.148,0,0,1-1.823-.988l.1-3.78a1.2,1.2,0,0,0-.473-.988l-2.968-2.224a1.2,1.2,0,0,1,.349-2.092l3.52-1.074a1.166,1.166,0,0,0,.766-.769l1.136-3.6a1.135,1.135,0,0,1,2.039-.3l2.079,3.117a1.14,1.14,0,0,0,.946.513l3.671,0a1.187,1.187,0,0,1,.911,1.9l-2.235,3a1.213,1.213,0,0,0-.182,1.086l1.133,3.6a1.166,1.166,0,0,1-1.477,1.48l-3.46-1.263A1.121,1.121,0,0,0,365.763,297.68Zm0,0" transform="translate(-288.386 -229.294)"/><path class="a" d="M255.532,381.036a1.415,1.415,0,0,1-1.415-1.415,34.123,34.123,0,0,1,8.036-22.644,29.43,29.43,0,0,1,8.133-6.789,1.415,1.415,0,0,1,1.281,2.523,27.209,27.209,0,0,0-7.344,6.2,31.067,31.067,0,0,0-7.276,20.709,1.415,1.415,0,0,1-1.415,1.415Zm0,0" transform="translate(-205.073 -283.036)"/><path class="e" d="M78.119,341.459l2.252,2.987a1.137,1.137,0,0,0,2.019-.426l.931-3.658a1.171,1.171,0,0,1,.722-.813l3.453-1.284a1.2,1.2,0,0,0,.231-2.108l-3.089-2.043a1.2,1.2,0,0,1-.528-.958l-.118-3.78a1.145,1.145,0,0,0-1.875-.878l-2.84,2.4a1.124,1.124,0,0,1-1.048.221L74.7,330.062a1.169,1.169,0,0,0-1.39,1.566l1.334,3.524a1.213,1.213,0,0,1-.12,1.095l-2.061,3.129a1.183,1.183,0,0,0,1.017,1.846L77.146,341a1.136,1.136,0,0,1,.973.455Zm0,0" transform="translate(-58.028 -265.403)"/><path class="c" d="M156.266,431.1a1.415,1.415,0,0,1-1.415-1.415,32.306,32.306,0,0,0-3.8-15.644,1.415,1.415,0,0,1,2.485-1.354,35.115,35.115,0,0,1,4.144,17,1.415,1.415,0,0,1-1.415,1.415Zm0,0" transform="translate(-121.595 -333.097)"/><path class="e" d="M236.848,39.376a3.8,3.8,0,1,0-3.8,3.912A3.855,3.855,0,0,0,236.848,39.376Zm0,0" transform="translate(-184.969 -28.677)"/><path class="b" d="M341,430.29a3.8,3.8,0,1,0-3.8,3.911A3.855,3.855,0,0,0,341,430.29Zm0,0" transform="translate(-269.189 -344.768)"/><path class="f" d="M18.4,437.6a3.046,3.046,0,1,0-3.045,3.137A3.092,3.092,0,0,0,18.4,437.6Zm0,0" transform="translate(-9.551 -351.308)"/><path class="b" d="M62.445,275.1a3.046,3.046,0,1,0-3.045,3.137A3.092,3.092,0,0,0,62.445,275.1Zm0,0" transform="translate(-45.164 -219.909)"/><g transform="translate(25.778)"><path class="a" d="M185.113,3.137a3.046,3.046,0,1,0-6.09,0,3.046,3.046,0,1,0,6.09,0Zm0,0" transform="translate(-170.131)"/><path class="a" d="M339.5,139.63a3.047,3.047,0,1,0-3.045,3.137A3.093,3.093,0,0,0,339.5,139.63Zm0,0" transform="translate(-294.964 -110.367)"/><path class="a" d="M133.98,13.136a1.415,1.415,0,0,1-1.015-2.4l1.759-1.812a1.415,1.415,0,1,1,2.03,1.971l-1.759,1.812a1.412,1.412,0,0,1-1.015.429Zm0,0" transform="translate(-132.565 -6.868)"/></g></g></svg>