<svg xmlns="http://www.w3.org/2000/svg" width="16.17" height="16.17" viewBox="0 0 16.17 16.17"><defs><style>.a{fill:#929ca1;}</style></defs><path class="a" d="M15.81,6.714,13.918,6.25a6.1,6.1,0,0,0-.4-.966l.966-1.611A.471.471,0,0,0,14.42,3.1L13.075,1.75a.471.471,0,0,0-.578-.066l-1.611.966a6.1,6.1,0,0,0-.966-.4L9.465.36A.486.486,0,0,0,9,0H7.106a.486.486,0,0,0-.464.36L6.187,2.252a6.1,6.1,0,0,0-.966.4L3.61,1.683a.471.471,0,0,0-.578.066L1.686,3.1a.471.471,0,0,0-.066.578l.966,1.611a6.1,6.1,0,0,0-.4.966L.36,6.714A.467.467,0,0,0,0,7.169V9.064a.467.467,0,0,0,.36.455l1.829.464a6.1,6.1,0,0,0,.4.966L1.62,12.56a.471.471,0,0,0,.066.578l1.345,1.345a.471.471,0,0,0,.578.066l1.611-.966a6.1,6.1,0,0,0,.966.4l.455,1.829a.486.486,0,0,0,.464.36H9a.486.486,0,0,0,.464-.36l.455-1.829a6.1,6.1,0,0,0,.966-.4l1.611.966a.471.471,0,0,0,.578-.066l1.345-1.345a.471.471,0,0,0,.066-.578l-.966-1.611a6.1,6.1,0,0,0,.4-.966l1.892-.464a.467.467,0,0,0,.36-.455V7.169A.467.467,0,0,0,15.81,6.714ZM8.053,10.485a2.369,2.369,0,1,1,2.369-2.369A2.37,2.37,0,0,1,8.053,10.485Z"/></svg>
