<svg xmlns="http://www.w3.org/2000/svg" width="23.765" height="21" viewBox="0 0 23.765 21">
  <path id="share" d="M3071.618,4849a2.636,2.636,0,0,1-2.618-2.646v-12.612a2.637,2.637,0,0,1,2.618-2.647h3.619a.53.53,0,0,1,0,1.06h-3.619a1.58,1.58,0,0,0-1.571,1.587v12.612a1.581,1.581,0,0,0,1.571,1.587h17.135a1.581,1.581,0,0,0,1.57-1.587v-2.237a.524.524,0,1,1,1.048,0v2.237a2.636,2.636,0,0,1-2.618,2.646Zm7.8-7.693a.529.529,0,0,1-.42-.431l-.111-.646a.2.2,0,0,1,0-.025v0a8.315,8.315,0,0,1,.093-2.688,8.049,8.049,0,0,1,2.754-4.665,7.116,7.116,0,0,1,4.46-1.5v-2.824a.53.53,0,0,1,.323-.489.517.517,0,0,1,.569.114l5.532,5.567a.532.532,0,0,1,0,.748l-5.531,5.623a.522.522,0,0,1-.57.117.53.53,0,0,1-.324-.49v-2.925a5.446,5.446,0,0,0-2.1.311,7.386,7.386,0,0,0-3.794,3.393l-.332.562a.525.525,0,0,1-.451.257A.569.569,0,0,1,3079.414,4841.307Z" transform="translate(-3069 -4828)" fill="#f7f8fb"/>
</svg>
