<svg xmlns="http://www.w3.org/2000/svg" width="35.272" height="31.466" viewBox="0 0 35.272 31.466"><defs><style>.a{fill:#2a2a2a;}</style></defs><path class="a" d="M10.2,51.838a1.161,1.161,0,0,1,0-2.321c4.283.015,15.579,0,20,.007a2.569,2.569,0,0,0,2.515-2l2.509-10.866A2.088,2.088,0,0,0,33.192,34.1c-1.778,0-16.868-.068-24.6-.1L7.37,29.454a2.5,2.5,0,0,0-2.411-1.845H1.034a1.034,1.034,0,0,0,0,2.068H4.959a.43.43,0,0,1,.415.317l4.705,17.458a3.227,3.227,0,0,0-3.111,3.282A3.244,3.244,0,0,0,10.2,53.905H11.7a3.619,3.619,0,1,0,6.538,0H24.77a3.619,3.619,0,1,0,6.511-.055,1.034,1.034,0,0,0-.33-2.013Zm6.327,3.619a1.551,1.551,0,1,1-1.552-1.551h0A1.553,1.553,0,0,1,16.524,55.456Zm11.516,1.55a1.551,1.551,0,0,1-.025-3.1h.05a1.551,1.551,0,0,1-.025,3.1ZM33.2,36.175a.016.016,0,0,1,0,.017L32.146,40.77h-3.58l.61-4.62,4.008.016A.016.016,0,0,1,33.2,36.175ZM22.54,47.455V42.838h3.667L25.6,47.455Zm-5.127,0L16.8,42.838h3.673v4.617Zm-4.76,0h0a.56.56,0,0,1-.54-.412l-1.133-4.2h3.735l.614,4.617Zm3.87-6.685L15.9,36.1l4.57.018V40.77Zm6.016,0V36.124l4.551.018L26.48,40.77Zm-8.725-4.682.623,4.682H10.42l-1.267-4.7Zm16.38,11.367H27.683l.609-4.617h3.376l-.974,4.22A.511.511,0,0,1,30.194,47.455Z" transform="translate(0 -27.609)"/></svg>