<svg xmlns="http://www.w3.org/2000/svg" width="25.463" height="24.004" viewBox="0 0 25.463 24.004">
  <g id="sound_mute" transform="translate(-1875 -405.998)">
    <path id="Subtraction_9" data-name="Subtraction 9" d="M21395.742,23773l0,0-9.234-6.49a.69.69,0,0,0-.561-.281h-2.871a2.089,2.089,0,0,1-2.076-2.076v-6.3a2.1,2.1,0,0,1,.381-1.191l14.363,12.488V23773Zm0-9.16,0,0-9.414-8.184a.764.764,0,0,0,.18-.166l9.236-6.492v14.844Z" transform="translate(-19500.996 -23343)" fill="#f7f8fb"/>
    <rect id="Rectangle_2593" data-name="Rectangle 2593" width="2" height="32" rx="1" transform="translate(1875 407.51) rotate(-49)" fill="#fff"/>
  </g>
</svg>
