<svg xmlns="http://www.w3.org/2000/svg" width="22.688" height="16.5" viewBox="0 0 22.688 16.5"><defs><style>.a{fill:#1d1d1d;}</style></defs><g transform="translate(0 -64)"><g transform="translate(0 64)"><path class="a" d="M19.594,68.125H16.5V64H2.063A2.062,2.062,0,0,0,0,66.063V77.406H2.063a3.094,3.094,0,1,0,6.187,0h6.187a3.094,3.094,0,1,0,6.187,0h2.063V72.25ZM5.156,78.953A1.547,1.547,0,1,1,6.7,77.406,1.545,1.545,0,0,1,5.156,78.953Zm12.375,0a1.547,1.547,0,1,1,1.547-1.547A1.545,1.545,0,0,1,17.531,78.953ZM16.5,72.25V69.672h2.578L21.1,72.25Z" transform="translate(0 -64)"/></g></g></svg>